<?xml version="1.0" standalone="no"?>
<!DOCTYPE svg PUBLIC "-//W3C//DTD SVG 1.1//EN" "http://www.w3.org/Graphics/SVG/1.1/DTD/svg11.dtd" >
<!--
2013-9-30: Created.
-->
<svg>
<metadata>
Created by iconfont
</metadata>
<defs>

<font id="iconfont" horiz-adv-x="1024" >
  <font-face
    font-family="iconfont"
    font-weight="500"
    font-stretch="normal"
    units-per-em="1024"
    ascent="896"
    descent="-128"
  />
    <missing-glyph />
    
    <glyph glyph-name="wenhao" unicode="&#58959;" d="M512 782.222222a398.222222 398.222222 0 1 0-398.222222-398.222222 398.222222 398.222222 0 0 0 398.222222 398.222222m0 113.777778a512 512 0 1 1 512-512 512 512 0 0 1-512 512zM521.102222 703.715556a203.662222 203.662222 0 0 1-151.893333-56.888889A202.524444 202.524444 0 0 1 312.888889 497.777778h93.297778a149.048889 149.048889 0 0 0 23.893333 90.453333 98.417778 98.417778 0 0 0 85.902222 36.977778 99.555556 99.555556 0 0 0 73.955556-26.168889 101.262222 101.262222 0 0 0 25.6-72.248889 103.537778 103.537778 0 0 0-23.893334-64.284444l-14.791111-16.497778a481.848889 481.848889 0 0 1-100.693333-110.364445 185.457778 185.457778 0 0 1-16.497778-83.626666v-14.791111h93.866667v14.791111a120.035556 120.035556 0 0 0 14.222222 56.888889 152.462222 152.462222 0 0 0 35.84 44.942222 859.591111 859.591111 0 0 1 74.524445 68.266667 170.666667 170.666667 0 0 1 32.995555 109.795555 160.426667 160.426667 0 0 1-51.768889 125.724445 198.542222 198.542222 0 0 1-138.24 46.648888z m-14.791111-512a56.888889 56.888889 0 0 1-44.942222-17.635556 56.888889 56.888889 0 0 1-19.342222-44.942222 64.284444 64.284444 0 0 1 64.284444-64.853334 68.835556 68.835556 0 0 1 46.648889 17.635556 62.008889 62.008889 0 0 1 18.204444 45.511111 56.888889 56.888889 0 0 1-18.204444 44.942222 63.146667 63.146667 0 0 1-46.648889 17.635556z"  horiz-adv-x="1024" />

    
    <glyph glyph-name="biaojiyidu-88" unicode="&#58958;" d="M870.4-96H153.6A150.08 150.08 0 0 0 0 49.92V444.16a133.12 133.12 0 0 0 53.12 106.24l371.2 283.84a144.64 144.64 0 0 0 175.68 0l370.88-283.84A133.12 133.12 0 0 0 1024 444.16v-394.24A150.08 150.08 0 0 0 870.4-96zM482.88 759.68L112 475.84a39.68 39.68 0 0 1-16.32-32v-393.92A55.04 55.04 0 0 1 153.6 0h716.8a55.04 55.04 0 0 1 57.6 49.92V444.16a39.68 39.68 0 0 1-16 32L541.12 759.68a48.64 48.64 0 0 1-58.24 0zM512 115.84a124.48 124.48 0 0 0-88 36.16L243.84 329.6a40.64 40.64 0 0 0 0 57.92 41.92 41.92 0 0 0 58.56 0l179.84-177.6a42.88 42.88 0 0 1 58.88 0l179.84 177.6a41.92 41.92 0 0 0 58.56 0 40.64 40.64 0 0 0 0-57.92l-179.84-177.6A124.48 124.48 0 0 0 512 115.84z"  horiz-adv-x="1024" />

    
    <glyph glyph-name="jieshoushezhi" unicode="&#58955;" d="M1007.2288 448l-192 333.12a128 128 0 0 1-111.04 64H320.1888a128 128 0 0 1-111.04-64L17.1488 448a128 128 0 0 1 0-128l192-333.12a128 128 0 0 1 111.04-64h384a128 128 0 0 1 111.04 64l192 333.12a128 128 0 0 1 0 128z m-82.88-80.64l-192-333.12a32 32 0 0 0-28.16-16.32H320.1888a32 32 0 0 0-28.16 16.32l-192 333.12a32 32 0 0 0 0 32l192 333.12a32 32 0 0 0 28.16 17.28h384a32 32 0 0 0 28.16-16.32l192-333.12a32 32 0 0 0-0.32-32.64zM512.1888 564.8A180.8 180.8 0 1 1 692.6688 384 180.8 180.8 0 0 1 512.1888 564.8z m0-265.6A84.8 84.8 0 1 0 596.6688 384 84.8 84.8 0 0 0 512.1888 299.2z"  horiz-adv-x="1024" />

    
    <glyph glyph-name="piliangshanchu" unicode="&#58957;" d="M980.16 729.6h-293.44V852.16A43.84 43.84 0 0 1 642.88 896h-261.76a43.84 43.84 0 0 1-43.84-43.84V729.6H43.84a43.84 43.84 0 1 1 0-87.68h102.72V-25.6a102.4 102.4 0 0 1 102.4-102.4h526.08a102.4 102.4 0 0 1 102.4 102.4V641.92h102.72a43.84 43.84 0 0 1 0 87.68zM425.28 808.32h173.76V729.6h-173.76zM789.76-25.6a14.72 14.72 0 0 0-14.72-14.72H248.96a14.72 14.72 0 0 0-14.72 14.72V641.92h555.52zM368 513.92a43.84 43.84 0 0 1-43.84-43.84V128a43.84 43.84 0 0 1 87.68 0V470.08a43.84 43.84 0 0 1-43.84 43.84zM512 513.92a43.84 43.84 0 0 1-43.84-43.84V128a43.84 43.84 0 0 1 87.68 0V470.08A43.84 43.84 0 0 1 512 513.92zM611.84 470.08V128a43.84 43.84 0 0 1 87.68 0V470.08a43.84 43.84 0 0 1-87.68 0z"  horiz-adv-x="1024" />

    
    <glyph glyph-name="tubiao1-87" unicode="&#58948;" d="M972.8 697.6a71.04 71.04 0 0 1-100.48 0L396.8 222.08 234.24 384a71.04 71.04 0 0 1-100.48-100.48l212.48-213.12a71.04 71.04 0 0 1 101.76 0l524.8 526.08a71.04 71.04 0 0 1 0 101.12z"  horiz-adv-x="1024" />

    
    <glyph glyph-name="tubiao1-88" unicode="&#58949;" d="M512-121.6a498.56 498.56 0 0 0-177.28 30.72A491.52 491.52 0 0 0 58.88 172.8a588.16 588.16 0 0 0-5.12 394.88A492.16 492.16 0 0 0 320 846.72 436.48 436.48 0 0 0 512 889.6a554.24 554.24 0 0 0 185.6-33.28 555.52 555.52 0 0 0 192-120.32V832a56.96 56.96 0 0 0 113.92 0v-268.8a53.76 53.76 0 0 0-56.96-56.96H678.4a53.76 53.76 0 0 0-56.96 56.96 53.76 53.76 0 0 0 56.96 56.96h150.4a377.6 377.6 0 0 1-165.12 128 339.84 339.84 0 0 1-132.48 25.6 403.84 403.84 0 0 1-163.84-35.84A392.32 392.32 0 0 1 166.4 528.64a387.84 387.84 0 0 1 4.48-301.44A392.32 392.32 0 0 1 384 26.24 340.48 340.48 0 0 1 512 0a402.56 402.56 0 0 1 163.84 35.84 392.32 392.32 0 0 1 200.96 210.56 64 64 0 0 0 51.2 37.76 49.92 49.92 0 0 0 25.6-6.4 72.96 72.96 0 0 0 30.08-30.08 55.04 55.04 0 0 0 0-46.08 491.52 491.52 0 0 0-263.68-277.76A499.84 499.84 0 0 0 512-121.6z"  horiz-adv-x="1024" />

    
    <glyph glyph-name="tubiao1-86" unicode="&#58950;" d="M975.36 475.52L596.48 854.4A64 64 0 0 1 505.6 764.16L820.48 448H74.88a64 64 0 0 1 0-128h746.88L505.6 3.84a64 64 0 1 1 90.24-90.24l378.88 378.88a128 128 0 0 1 0 183.04z"  horiz-adv-x="1024" />

    
    <glyph glyph-name="xitongxiaoxi" unicode="&#58937;" d="M512 896C162.702222 896 0 733.297778 0 384s162.702222-512 512-512 512 162.702222 512 512S861.297778 896 512 896z m284.444444-587.235556l-28.444444-68.835555a50.915556 50.915556 0 0 0-50.062222-31.431111l-30.293334 1.848889 2.417778-30.151111a50.488889 50.488889 0 0 0-30.72-50.488889l-68.266666-28.444445a50.631111 50.631111 0 0 0-57.173334 12.515556l-20.053333 22.755555-19.626667-22.755555A50.631111 50.631111 0 0 0 455.111111 96a50.062222 50.062222 0 0 0-18.346667 3.555556l-68.835555 28.444444a50.346667 50.346667 0 0 0-31.431111 50.062222l1.848889 30.151111-30.151111-2.417777a50.062222 50.062222 0 0 0-50.488889 30.72l-28.444445 68.266666a50.631111 50.631111 0 0 0 12.515556 57.315556l22.755555 20.053333-22.755555 19.626667a50.346667 50.346667 0 0 0-14.222222 56.888889l28.444444 68.835555a51.057778 51.057778 0 0 0 50.062222 31.431111l30.151111-1.848889-2.417777 30.151112a50.488889 50.488889 0 0 0 30.72 50.488888l68.266666 28.444445a50.488889 50.488889 0 0 0 57.6-13.226667l19.911111-22.755555L529.777778 654.222222a50.346667 50.346667 0 0 0 56.888889 14.222222l68.835555-28.444444a50.488889 50.488889 0 0 0 31.431111-50.062222l-1.848889-30.151111 30.151112 2.417777a50.631111 50.631111 0 0 0 50.488888-30.72l28.444445-68.266666a50.488889 50.488889 0 0 0-11.946667-57.315556l-22.755555-20.053333 22.755555-19.626667a50.346667 50.346667 0 0 0 14.222222-57.457778zM683.946667 381.155556v22.897777l49.208889 42.666667L711.111111 497.777778l-65.28-5.12-10.524444 10.951111-5.404445 5.404444-10.951111 10.382223 4.124445 65.28-50.773334 20.622222-42.666666-49.635556h-37.831112l-42.666666 49.066667L398.222222 583.111111l5.12-65.137778-10.808889-10.524444-5.546666-5.688889-10.382223-10.951111-65.137777 4.124444-20.622223-50.773333 49.635556-42.666667v-37.831111l-49.208889-42.666666L312.888889 270.222222l65.28 5.12 10.524444-10.951111 5.404445-5.404444 10.951111-10.382223-4.124445-65.137777 50.773334-20.622223 42.666666 49.635556H532.48l42.666667-48.924444L625.777778 184.888889l-5.12 65.28 10.951111 10.524444 5.404444 5.404445 10.382223 10.951111 65.137777-4.124445 20.622223 50.773334-49.635556 42.666666zM581.12 355.555556A74.524444 74.524444 0 1 0 540.444444 453.12 74.666667 74.666667 0 0 0 581.12 355.555556z"  horiz-adv-x="1024" />

    
    <glyph glyph-name="weibaoxiaoxi" unicode="&#58936;" d="M325.262222 230.968889h0.853334a36.266667 36.266667 0 1 1 35.413333-36.408889 36.551111 36.551111 0 0 1-36.266667 36.408889zM512 896C162.702222 896 0 733.297778 0 384s162.702222-512 512-512 512 162.702222 512 512S861.297778 896 512 896zM256.711111 588.942222a68.977778 68.977778 0 0 0 4.124445 14.222222 62.435556 62.435556 0 0 0 11.093333 15.786667A60.871111 60.871111 0 0 0 304.924444 640h16.924445l6.115555-1.28a95.004444 95.004444 0 0 0 10.097778-3.413333 60.017778 60.017778 0 0 0 19.484445-14.222223l10.24-9.813333 10.097777-9.671111 25.6-26.453333L424.391111 554.666667l14.222222-14.222223 12.8-13.226666 14.222223-13.368889L481.706667 497.777778l5.688889-6.115556-19.342223-19.484444-6.542222 7.111111-25.315555 25.315555-99.555556 99.555556a21.191111 21.191111 0 0 1-8.106667 5.831111 7.68 7.68 0 0 1-8.817777-6.115555 10.24 10.24 0 0 1 3.84-9.244445l14.222222-14.222222 108.8-108.231111 11.093333-10.666667-23.04-23.04-1.991111 2.417778-2.275556 2.986667-95.573333 95.573333-32.142222 32.284444a26.595556 26.595556 0 0 1-5.688889 4.977778 7.68 7.68 0 0 1-11.235556-6.257778 9.244444 9.244444 0 0 1 2.133334-6.115555 26.026667 26.026667 0 0 1 2.702222-2.844445l129.137778-129.991111a56.888889 56.888889 0 0 1 5.404444-4.551111l-12.373333-11.946667-7.111111-5.831111s-2.133333-0.995556-2.133334 0l-10.951111 10.666667-117.76 117.76a66.133333 66.133333 0 0 0-18.062222 32.853333z m504.746667-447.715555a25.884444 25.884444 0 0 0-10.951111-8.391111 12.942222 12.942222 0 0 0-7.822223 0 60.444444 60.444444 0 0 0-14.222222 6.257777l-10.097778 5.688889-14.222222 8.817778-16.355555 10.951111q-8.248889 5.831111-16.213334 12.231111a149.048889 149.048889 0 0 0-12.942222 11.093334 49.777778 49.777778 0 0 0-14.222222 24.462222 33.564444 33.564444 0 0 1-2.133333 8.817778 17.635556 17.635556 0 0 1-4.835556 7.537777l-71.111111 71.111111 28.444444 28.444445h1.28l11.52-11.377778 45.084445-45.084444 14.222222-14.222223a24.604444 24.604444 0 0 1 9.813333-6.684444 32 32 0 0 1 6.257778-1.28 43.804444 43.804444 0 0 0 16.782222-5.688889 49.493333 49.493333 0 0 0 12.8-10.666667 108.231111 108.231111 0 0 0 7.395556-9.813333c5.688889-8.391111 11.52-16.782222 16.924444-25.173333s12.231111-19.342222 18.062223-28.444445c2.275556-3.84 4.835556-7.537778 6.968888-11.52a16.213333 16.213333 0 0 0-0.426666-17.066666z m5.831111 368.071111a38.257778 38.257778 0 0 0-1.28-11.093334 119.751111 119.751111 0 0 0-15.786667-41.955555 107.946667 107.946667 0 0 0-19.342222-23.751111c-3.555556-3.128889-6.968889-6.257778-10.666667-9.244445a112.355556 112.355556 0 0 0-27.733333-14.222222 116.053333 116.053333 0 0 0-18.915556-5.831111 88.888889 88.888889 0 0 0-19.342222-2.133333h-17.351111a13.368889 13.368889 0 0 1-10.097778-4.124445l-52.337777-52.764444-192-193.137778-5.688889-5.404444a71.111111 71.111111 0 0 0-15.928889-10.951112 63.857778 63.857778 0 0 0-20.906667-6.684444h-24.746667a69.12 69.12 0 0 0-20.906666 7.395556 71.111111 71.111111 0 0 0-20.906667 18.062222 73.244444 73.244444 0 0 0-12.515555 24.177778 63.004444 63.004444 0 0 0-2.844445 21.475555 67.555556 67.555556 0 0 0 9.244445 31.288889 74.097778 74.097778 0 0 0 11.52 15.786667l245.617777 246.897777H526.222222a14.222222 14.222222 0 0 1 3.555556 11.52 59.591111 59.591111 0 0 1-1.28 14.222223 77.795556 77.795556 0 0 0 0 10.951111 150.613333 150.613333 0 0 0 2.275555 15.786666 117.76 117.76 0 0 0 12.088889 30.862223 120.462222 120.462222 0 0 0 18.631111 25.315555 98.702222 98.702222 0 0 0 11.377778 10.24c4.835556 3.84 10.097778 6.968889 15.075556 10.24a86.471111 86.471111 0 0 0 19.768889 9.244445 154.311111 154.311111 0 0 0 17.635555 4.835555 142.222222 142.222222 0 0 0 17.635556 3.697778 97.137778 97.137778 0 0 0 20.906666-1.422222 18.346667 18.346667 0 0 0 10.24-4.551111 14.222222 14.222222 0 0 0 3.413334-16.497778 33.706667 33.706667 0 0 0-8.106667-11.804445l-19.911111-20.906666-20.906667-21.191111a52.053333 52.053333 0 0 1-8.391111-10.24 24.604444 24.604444 0 0 1-3.128889-18.631111 32.568889 32.568889 0 0 1 8.675556-15.644445c8.817778-8.96 17.777778-17.635556 26.88-26.595555a34.133333 34.133333 0 0 1 10.097778-6.968889 23.04 23.04 0 0 1 13.226666-1.848889 29.866667 29.866667 0 0 1 15.928889 9.386666l25.742222 26.168889L738.844444 540.444444a15.502222 15.502222 0 0 0 14.222223 4.408889 14.222222 14.222222 0 0 0 12.088889-11.377777 95.004444 95.004444 0 0 0 0-9.671112v-1.706666h2.275555z"  horiz-adv-x="1024" />

    
    <glyph glyph-name="shengchanxiaoxi" unicode="&#58933;" d="M1024 384c0-349.297778-162.702222-512-512-512S0 34.702222 0 384 162.702222 896 512 896s512-162.702222 512-512zM755.484444 437.902222l-56.035555 18.631111c-1.137778 2.844444-2.275556 5.688889-3.555556 8.533334l26.453334 52.906666a18.204444 18.204444 0 0 1-3.413334 21.048889l-51.768889 51.768889a18.204444 18.204444 0 0 1-21.048888 3.413333l-52.906667-26.453333-8.533333 3.555556-18.631112 56.035555a18.204444 18.204444 0 0 1-17.493333 12.657778h-73.102222a18.204444 18.204444 0 0 1-17.351111-12.515556l-18.631111-56.035555-8.533334-3.555556-52.906666 26.453334a18.204444 18.204444 0 0 1-21.048889-3.413334l-51.768889-51.768889a18.204444 18.204444 0 0 1-3.413333-21.048888l26.453333-52.906667c-1.28-2.844444-2.417778-5.688889-3.555556-8.533333l-56.035555-18.631112a18.204444 18.204444 0 0 1-12.657778-17.493333v-73.102222a18.204444 18.204444 0 0 1 12.515556-17.351111l56.035555-18.631111c1.137778-2.844444 2.275556-5.688889 3.555556-8.533334l-26.453334-52.906666a18.346667 18.346667 0 0 1 3.413334-21.048889l51.768889-51.768889a18.204444 18.204444 0 0 1 21.048888-3.413333l52.906667 26.453333 8.533333-3.555556 18.631112-56.035555a18.204444 18.204444 0 0 1 17.351111-12.515556h73.102222a18.346667 18.346667 0 0 1 17.351111 12.515556l18.631111 56.035555 8.533333 3.555556 52.906667-26.453333a18.204444 18.204444 0 0 1 21.048889 3.413333l51.768889 51.768889a18.346667 18.346667 0 0 1 3.413333 21.048889l-26.453333 52.906666q1.848889 4.266667 3.555555 8.533334l56.035556 18.631111a18.204444 18.204444 0 0 1 12.8 17.351111v73.102222a18.204444 18.204444 0 0 1-12.515556 17.351111z m-148.906666-67.271111a14.222222 14.222222 0 0 0-13.368889-11.662222l-56.888889-4.124445-69.262222-69.262222a37.404444 37.404444 0 1 0-53.048889 53.048889L483.555556 408.035556l4.124444 56.888888a14.222222 14.222222 0 0 0 11.52 13.368889l66.986667 14.222223a11.52 11.52 0 0 0 10.666666-3.128889 8.96 8.96 0 0 0 0-12.8l-29.582222-29.582223 4.408889-23.04 24.462222-5.688888 29.44 29.44a8.96 8.96 0 0 0 12.8 0 11.52 11.52 0 0 0 3.128889-10.666667z"  horiz-adv-x="1024" />

    
    <glyph glyph-name="daojuxiaoxi" unicode="&#58934;" d="M1024 384c0-349.297778-162.702222-512-512-512S0 34.702222 0 384 162.702222 896 512 896s512-162.702222 512-512zM519.537778 492.373333H302.791111v-216.746666h216.746667zM353.848889 312.888889l-19.2-6.257778 6.684444 19.342222 20.906667 20.906667 12.942222-12.942222z m30.862222 29.582222l-21.333333 5.973333 9.528889 9.528889 21.902222-5.404444z m12.657778 12.657778l-21.902222 5.262222 9.955555 9.955556 21.76-5.546667z m12.088889 12.8l-22.328889 4.835555 21.191111 21.191112 14.222222-14.222223z m23.04 7.111111l-29.724445 29.724444L426.666667 428.231111 456.106667 398.222222z m45.084444 28.444444l-11.093333-11.093333L419.413333 440.888889l11.093334 11.093333a33.564444 33.564444 0 0 0 47.36-47.36zM711.111111 585.528889H312.888889a53.902222 53.902222 0 0 1-56.888889-50.346667v-302.364444a53.902222 53.902222 0 0 1 56.888889-50.346667h398.222222a53.902222 53.902222 0 0 1 56.888889 50.346667V535.182222a53.902222 53.902222 0 0 1-56.888889 50.346667zM535.466667 259.697778H286.862222V508.302222h248.604445z m123.022222 44.942222h-88.604445a11.946667 11.946667 0 0 0 0 24.035556h88.604445a11.946667 11.946667 0 0 0 0-24.035556z m66.844444 61.297778H569.884444a11.946667 11.946667 0 1 0 0 24.035555H725.333333a11.946667 11.946667 0 0 0 0-24.035555zM725.333333 426.666667H569.884444a11.946667 11.946667 0 0 0 0 24.035555H725.333333A11.946667 11.946667 0 1 0 725.333333 426.666667z"  horiz-adv-x="1024" />

    
    <glyph glyph-name="shebeixiaoxi" unicode="&#58935;" d="M1024 384c0-349.297778-162.702222-512-512-512S0 34.702222 0 384 162.702222 896 512 896s512-162.702222 512-512zM512 496.782222a59.306667 59.306667 0 1 1 59.306667-59.306666A59.306667 59.306667 0 0 1 512 496.782222zM728.888889 422.968889a216.746667 216.746667 0 1 1-332.515556-183.182222 148.337778 148.337778 0 0 1-32.568889-92.728889A19.057778 19.057778 0 0 1 382.862222 128h258.275556a19.2 19.2 0 0 1 19.057778 19.057778 148.337778 148.337778 0 0 1-32.568889 92.728889 216.746667 216.746667 0 0 1 101.262222 183.182222zM512 337.92a99.555556 99.555556 0 1 0 99.555556 99.555556 99.555556 99.555556 0 0 0-99.555556-99.555556z"  horiz-adv-x="1024" />

    
    <glyph glyph-name="apptubiaozuizhongban-85" unicode="&#59058;" d="M501.76 459.52a113.28 113.28 0 0 1 10.24 47.04 114.88 114.88 0 0 1 0 13.44l-34.56-34.56zM432.64 392.96l-92.48 92.48 119.36 119.36a137.28 137.28 0 0 1-25.28 14.4 131.2 131.2 0 0 1-99.84 0 130.24 130.24 0 0 1-40.32-26.24 124.8 124.8 0 0 1-27.52-38.72A111.68 111.68 0 0 1 256 506.56a113.6 113.6 0 0 1 10.24-47.36 131.2 131.2 0 0 1 27.52-39.04A128 128 0 0 1 384 384a128 128 0 0 1 48.64 8.96zM357.12 86.4l101.44 101.44a218.88 218.88 0 0 0-40.32 4.16 198.72 198.72 0 0 0-32 8.96 219.2 219.2 0 0 0-26.56 12.16 218.24 218.24 0 0 1-26.88 10.88 194.88 194.88 0 0 1-32 8.96 230.72 230.72 0 0 1-44.8 4.16 93.44 93.44 0 0 1-42.24-10.56 215.04 215.04 0 0 1-40.32-27.2 344.96 344.96 0 0 1-37.44-36.8c-12.16-13.76-23.04-27.2-32-40.64V684.48a44.48 44.48 0 0 0 44.8 43.52h334.72l-97.6 97.92H101.44A99.52 99.52 0 0 1 0 728.64v-689.28a99.52 99.52 0 0 1 101.44-96h400zM936.64 825.92h-416l97.92-97.92h215.36c48.32 0 87.36 5.44 87.36-42.88v-512q-16.32 36.16-38.08 73.6a466.24 466.24 0 0 1-47.36 68.16 247.04 247.04 0 0 1-56 49.92 115.52 115.52 0 0 1-64 19.2 136.96 136.96 0 0 1-64-14.4 174.4 174.4 0 0 1-34.56-25.28l66.56-66.56-192-192 144.32-144.32h285.44a99.52 99.52 0 0 1 101.44 96V738.56a87.36 87.36 0 0 1-86.4 87.36z"  horiz-adv-x="1024" />

    
    <glyph glyph-name="apptubiaozuizhongban-84" unicode="&#59057;" d="M980.16-32h-160a512 512 0 1 1-616 0h-160a43.84 43.84 0 1 1 0-87.68h368.96l4.16 2.24 3.2 2.24 3.52 2.88 2.56 2.88 2.88 3.52 2.24 3.52 0.32 6.4a43.52 43.52 0 0 1 1.6 4.48v2.56a78.08 78.08 0 0 1 0 8.96v2.88a43.2 43.2 0 0 1 0 4.8v3.84a43.52 43.52 0 0 1 0 4.16l-1.92 3.84-1.92 3.84-2.56 3.52-2.88 3.2-2.88 2.88-3.52 2.88-3.52 2.24-3.84 1.92-4.48 1.6h-2.56a424.32 424.32 0 1 0 216.96 0h-1.92l-5.44-1.92h-2.88l-4.48-2.56-2.88-2.24-3.52-3.2-2.24-2.88-2.88-3.84-1.6-2.88-1.92-4.48v-3.52a42.88 42.88 0 0 1 0-4.8v-7.36c0-0.96 0 0 0 0v-3.84a43.84 43.84 0 0 1 0-5.12v-1.92a43.84 43.84 0 0 1 5.44-12.16 43.84 43.84 0 0 1 8.64-8.96h1.92a43.52 43.52 0 0 1 10.56-5.76h2.56a43.2 43.2 0 0 1 12.16-1.92h348.8a43.84 43.84 0 0 1 0 87.68z"  horiz-adv-x="1024" />

    
    <glyph glyph-name="apptubiaozuizhongban-83" unicode="&#59056;" d="M896 687.573333H128a32 32 0 0 0 0 64h768a32 32 0 0 0 0-64zM896 352H128a32 32 0 1 0 0 64h768a32 32 0 0 0 0-64zM896 16.426667H128a32 32 0 1 0 0 64h768a32 32 0 0 0 0-64z"  horiz-adv-x="1024" />

    
    <glyph glyph-name="apptubiaozuizhongban-80" unicode="&#59053;" d="M845.013333 844.373333a30.08 30.08 0 0 1-21.333333 50.56H30.08a30.08 30.08 0 0 1-21.333333-50.56l250.453333-271.36v-408.32a29.866667 29.866667 0 0 1 2.133333-11.093333 30.08 30.08 0 0 1 6.613334-9.813333l107.946666-107.946667a30.08 30.08 0 1 1 42.666667 42.666667L320 177.066667V584.746667a29.866667 29.866667 0 0 1-1.706667 9.173333v1.493333a29.866667 29.866667 0 0 1-5.546666 8.96L98.986667 834.773333h654.933333l-210.346667-227.2a29.866667 29.866667 0 0 1-5.546666-9.173333V597.333333a29.866667 29.866667 0 0 1-1.706667-9.6v-684.586666a30.08 30.08 0 1 1 60.16 0V576zM745.173333 384a30.08 30.08 0 0 1 30.08-30.08h218.666667a30.08 30.08 0 0 1 0 60.16H775.253333A30.08 30.08 0 0 1 745.173333 384zM993.92 219.946667H775.253333a30.08 30.08 0 0 1 0-60.16h218.666667a30.08 30.08 0 0 1 0 60.16zM993.92 26.666667H775.253333a30.08 30.08 0 0 1 0-60.16h218.666667a30.08 30.08 0 0 1 0 60.16z"  horiz-adv-x="1024" />

    
    <glyph glyph-name="apptubiaozuizhongban-82" unicode="&#59054;" d="M512-128a512 512 0 1 0 512 512 512 512 0 0 0-512-512z m0 963.84A451.84 451.84 0 1 1 963.84 384 452.266667 452.266667 0 0 1 512 835.84zM512 384m-80.213333 0a80.213333 80.213333 0 1 1 160.426666 0 80.213333 80.213333 0 1 1-160.426666 0ZM764.8 384m-80.213333 0a80.213333 80.213333 0 1 1 160.426666 0 80.213333 80.213333 0 1 1-160.426666 0ZM259.2 384m-80.213333 0a80.213333 80.213333 0 1 1 160.426666 0 80.213333 80.213333 0 1 1-160.426666 0Z"  horiz-adv-x="1024" />

    
    <glyph glyph-name="apptubiaozuizhongban-81" unicode="&#59055;" d="M1024.16 440.32H568.48V896h43.84A412.16 412.16 0 0 0 1024.16 484.16zM656.16 528h277.12a324.48 324.48 0 0 1-277.12 277.12zM476.96-128a476.8 476.8 0 1 0 0 953.92h43.84v-432.96h433.28v-44.16A477.44 477.44 0 0 0 476.96-128zM433.12 736A389.12 389.12 0 1 1 864.16 304.96H433.12z"  horiz-adv-x="1024" />

    
    <glyph glyph-name="weizhi" unicode="&#59051;" d="M512-127.99872a56.734776 56.734776 0 0 0-39.245108 15.783358c-38.818531 37.112222-379.653764 371.122219-379.653764 589.103201a418.898872 418.898872 0 0 0 838.224322 0c0-217.980981-341.261811-551.564401-379.653765-589.103201A56.734776 56.734776 0 0 0 512-127.99872z m0 909.889302a305.42932 305.42932 0 0 1-305.42932-305.002743c0-116.029016 173.616946-332.730265 305.42932-469.23499 131.812374 134.798415 305.42932 351.926242 305.42932 469.23499A305.42932 305.42932 0 0 1 512 781.890582zM512 317.347942a190.680037 190.680037 0 1 0 190.680037 190.680037A191.106614 191.106614 0 0 0 512 317.347942z m0 267.890522a77.210485 77.210485 0 1 1 76.783907-77.210485 77.210485 77.210485 0 0 1-76.783907 76.783908z"  horiz-adv-x="1024" />

    
    <glyph glyph-name="tianjiashenqingmingxi" unicode="&#59052;" d="M433.28 539.52h259.52a43.84 43.84 0 1 1 0 87.68h-259.52a43.84 43.84 0 1 1 0-87.68zM316.48 583.36m-43.84 0a43.84 43.84 0 1 1 87.68 0 43.84 43.84 0 1 1-87.68 0ZM316.48 384m-43.84 0a43.84 43.84 0 1 1 87.68 0 43.84 43.84 0 1 1-87.68 0ZM316.48 184.64m-43.84 0a43.84 43.84 0 1 1 87.68 0 43.84 43.84 0 1 1-87.68 0ZM783.68 184.64h-43.2v43.2a43.84 43.84 0 0 1-87.68 0v-43.2H608A43.84 43.84 0 0 1 608 96h43.2v-43.2a43.84 43.84 0 0 1 87.68 0V96h43.2a43.84 43.84 0 1 1 0 87.68zM965.44 141.12a267.52 267.52 0 0 1-58.56 167.04V736a160 160 0 0 1-160 160H219.52a160 160 0 0 1-160-160v-704a160 160 0 0 1 160-160h526.4a160 160 0 0 1 134.72 73.6 268.16 268.16 0 0 1 84.8 195.52z m-269.12-181.12a181.12 181.12 0 1 0 181.12 181.12 181.44 181.44 0 0 0-180.8-181.44zM146.24 32V736a73.28 73.28 0 0 0 73.28 72.32h526.4A73.28 73.28 0 0 0 819.2 736v-355.84a266.56 266.56 0 0 1-89.28 27.52 43.84 43.84 0 0 1-36.8 20.16h-259.84a43.84 43.84 0 0 1 0-87.68h82.88a269.44 269.44 0 0 1-73.92-111.68h-8.96a43.84 43.84 0 0 1-5.76-87.04 267.52 267.52 0 0 1 70.72-181.12H219.52A73.28 73.28 0 0 0 146.24 32z"  horiz-adv-x="1024" />

    
    <glyph glyph-name="48riqi" unicode="&#59050;" d="M823.253333-128H200.746667a110.506667 110.506667 0 0 0-110.506667 110.506667V706.133333a110.506667 110.506667 0 0 0 110.506667 110.506667h622.506666a110.506667 110.506667 0 0 0 110.293334-110.506667v-723.626666A110.506667 110.506667 0 0 0 823.253333-128zM200.746667 756.48A50.346667 50.346667 0 0 1 150.613333 706.133333v-723.626666a50.346667 50.346667 0 0 1 50.133334-50.133334h622.506666a50.346667 50.346667 0 0 1 50.133334 50.133334V706.133333a50.346667 50.346667 0 0 1-50.133334 50.133334zM352.853333 677.12a30.08 30.08 0 0 0-30.08 30.08V865.92a30.08 30.08 0 1 0 60.16 0v-158.72a30.08 30.08 0 0 0-30.08-30.08zM671.146667 677.12A30.08 30.08 0 0 0 640 707.2V865.92a30.08 30.08 0 1 0 60.16 0v-158.72a30.08 30.08 0 0 0-29.013333-30.08zM903.466667 533.333333H120.533333a30.08 30.08 0 1 0 0 60.16h782.933334a30.08 30.08 0 1 0 0-60.16zM231.893333 403.413333m35.413334 0l29.013333 0q35.413333 0 35.413333-35.413333l0-29.013333q0-35.413333-35.413333-35.413334l-29.013333 0q-35.413333 0-35.413334 35.413334l0 29.013333q0 35.413333 35.413334 35.413333ZM462.08 403.413333m35.413333 0l29.013334 0q35.413333 0 35.413333-35.413333l0-29.013333q0-35.413333-35.413333-35.413334l-29.013334 0q-35.413333 0-35.413333 35.413334l0 29.013333q0 35.413333 35.413333 35.413333ZM692.266667 403.413333m35.413333 0l29.013333 0q35.413333 0 35.413334-35.413333l0-29.013333q0-35.413333-35.413334-35.413334l-29.013333 0q-35.413333 0-35.413333 35.413334l0 29.013333q0 35.413333 35.413333 35.413333ZM231.893333 196.266667m35.413334 0l29.013333 0q35.413333 0 35.413333-35.413334l0-29.013333q0-35.413333-35.413333-35.413333l-29.013333 0q-35.413333 0-35.413334 35.413333l0 29.013333q0 35.413333 35.413334 35.413334ZM462.08 196.266667m35.413333 0l29.013334 0q35.413333 0 35.413333-35.413334l0-29.013333q0-35.413333-35.413333-35.413333l-29.013334 0q-35.413333 0-35.413333 35.413333l0 29.013333q0 35.413333 35.413333 35.413334ZM692.266667 196.266667m35.413333 0l29.013333 0q35.413333 0 35.413334-35.413334l0-29.013333q0-35.413333-35.413334-35.413333l-29.013333 0q-35.413333 0-35.413333 35.413333l0 29.013333q0 35.413333 35.413333 35.413334Z"  horiz-adv-x="1024" />

    
    <glyph glyph-name="shaixuan" unicode="&#59049;" d="M846.08 822.4a43.84 43.84 0 0 1-32 73.6H43.84a43.84 43.84 0 0 1-32-73.6l240-259.2v-391.04a43.52 43.52 0 0 1 3.2-16 43.84 43.84 0 0 1 9.6-14.4l104.96-104.96a43.84 43.84 0 0 1 62.08 62.08l-91.84 91.84V580.16a43.52 43.52 0 0 1-2.24 13.76v1.92a43.52 43.52 0 0 1-8.96 12.16L144.32 808.32H713.6l-181.76-196.16a43.52 43.52 0 0 1-8.32-13.44v-1.6a43.52 43.52 0 0 1-2.56-13.76v-665.28a43.84 43.84 0 1 1 87.68 0V565.12zM723.84 384A43.84 43.84 0 0 1 768 340.16h212.48a43.84 43.84 0 1 1 0 87.68H768A43.84 43.84 0 0 1 723.84 384zM980.16 240.32H768a43.84 43.84 0 0 1 0-87.68h212.48a43.84 43.84 0 1 1 0 87.68zM980.16 52.48H768a43.84 43.84 0 1 1 0-87.68h212.48a43.84 43.84 0 1 1 0 87.68z"  horiz-adv-x="1024" />

    
    <glyph glyph-name="paixu" unicode="&#59046;" d="M373.17824 852.16a43.52 43.52 0 0 1-3.2 16 43.84 43.84 0 0 1-9.6 14.4 43.84 43.84 0 0 1-14.4 9.6 43.52 43.52 0 0 1-16 3.2 43.52 43.52 0 0 1-16-3.2A43.84 43.84 0 0 1 298.29824 883.2L12.85824 597.76a43.84 43.84 0 1 1 62.08-62.08L285.49824 746.24v-830.4a43.84 43.84 0 1 1 87.68 0V852.16zM931.89824 232.32a43.84 43.84 0 0 1-62.08 0l-210.24-210.24V852.16a43.84 43.84 0 0 1-87.68 0v-936.32a43.52 43.52 0 0 1 3.2-16 43.84 43.84 0 0 1 9.6-14.4 43.84 43.84 0 0 1 14.4-9.6 42.56 42.56 0 0 1 32 0 43.84 43.84 0 0 1 14.4 9.6l286.4 284.8a43.84 43.84 0 0 1 0 62.08z"  horiz-adv-x="1027" />

    
    <glyph glyph-name="32saoyisao" unicode="&#59047;" d="M73.28 516.48A41.28 41.28 0 0 0 32 557.76V713.28A151.04 151.04 0 0 0 182.72 864h157.76a41.28 41.28 0 0 0 0-82.24H182.72a68.48 68.48 0 0 1-68.48-68.48v-155.52a41.28 41.28 0 0 0-40.96-41.28zM340.48-96H182.72A151.04 151.04 0 0 0 32 54.72v160a41.28 41.28 0 0 0 82.24 0v-160a68.48 68.48 0 0 1 68.48-68.48h157.76a41.28 41.28 0 0 0 0-82.24zM841.28-96h-157.76a41.28 41.28 0 0 0 0 82.24h157.76a68.48 68.48 0 0 1 68.48 68.48v160a41.28 41.28 0 0 0 82.24 0v-160A151.04 151.04 0 0 0 841.28-96zM950.72 516.48a41.28 41.28 0 0 0-41.28 41.28V713.28a68.48 68.48 0 0 1-68.48 68.48h-157.44a41.28 41.28 0 0 0 0 82.24h157.76A151.04 151.04 0 0 0 992 713.28v-155.52a41.28 41.28 0 0 0-41.28-41.28zM950.72 342.72H73.28a41.28 41.28 0 0 0 0 82.24h877.44a41.28 41.28 0 1 0 0-82.24z"  horiz-adv-x="1024" />

    
    <glyph glyph-name="riqi" unicode="&#59048;" d="M775.36 818.88h-64v32a43.84 43.84 0 0 1-87.68 0v-32h-222.4v32a43.84 43.84 0 0 1-87.68 0v-32h-64a160 160 0 0 1-160-160V32a160 160 0 0 1 160-160h525.76a160 160 0 0 1 160 160V657.92a160 160 0 0 1-160 160.96zM248.64 731.2h64v-32a43.84 43.84 0 0 1 87.68 0v32h221.12v-32a43.84 43.84 0 0 1 87.68 0v32h64a73.28 73.28 0 0 0 73.28-73.28v-55.04h-672V657.92a73.28 73.28 0 0 0 74.24 73.28z m526.72-771.52H248.64A73.28 73.28 0 0 0 175.68 32V515.2h672V32a73.28 73.28 0 0 0-72.32-72.32zM288.64 354.56m-48.64 0a48.64 48.64 0 1 1 97.28 0 48.64 48.64 0 1 1-97.28 0ZM512 354.56m-48.64 0a48.64 48.64 0 1 1 97.28 0 48.64 48.64 0 1 1-97.28 0ZM735.36 354.56m-48.64 0a48.64 48.64 0 1 1 97.28 0 48.64 48.64 0 1 1-97.28 0ZM288.64 152.96m-48.64 0a48.64 48.64 0 1 1 97.28 0 48.64 48.64 0 1 1-97.28 0ZM512 152.96m-48.64 0a48.64 48.64 0 1 1 97.28 0 48.64 48.64 0 1 1-97.28 0ZM735.36 152.96m-48.64 0a48.64 48.64 0 1 1 97.28 0 48.64 48.64 0 1 1-97.28 0Z"  horiz-adv-x="1024" />

    
    <glyph glyph-name="lixianjilu" unicode="&#59045;" d="M1012.48 598.08a706.88 706.88 0 0 1-998.4 0 43.84 43.84 0 0 1 62.08-62.08 618.88 618.88 0 0 0 874.24 0 43.84 43.84 0 0 1 62.08 62.08zM218.88 393.28a43.84 43.84 0 1 1 62.08-62.08 328.96 328.96 0 0 0 464.64 0 43.84 43.84 0 0 1 62.08 62.08 416 416 0 0 1-588.8 0zM636.16 218.24a43.84 43.84 0 0 1-62.08 0L514.88 160l-58.88 58.88a43.84 43.84 0 0 1-62.08-62.08l58.88-60.8-58.88-58.88a43.84 43.84 0 1 1 62.08-62.08l58.88 58.88 58.88-58.88a43.84 43.84 0 1 1 62.08 62.08L576 96l58.88 58.88a43.84 43.84 0 0 1 1.28 63.36z"  horiz-adv-x="1025" />

    
    <glyph glyph-name="lixian" unicode="&#59044;" d="M511.715713 896a511.715713 511.715713 0 1 1 511.715714-511.715713 511.715713 511.715713 0 0 1-511.715714 511.715713z m97.794559-764.730705a42.642976 42.642976 0 1 0-60.26874-60.26874L511.715713 108.526374l-37.525818-37.525819a42.642976 42.642976 0 1 0-60.26874 60.26874l37.525819 37.525819-37.525819 37.525819a42.642976 42.642976 0 1 0 60.26874 60.268739l37.525818-37.525819 37.525819 37.525819a42.642976 42.642976 0 1 0 60.26874-60.268739l-37.525819-37.525819z m138.731816 213.783453a42.642976 42.642976 0 0 0-60.26874 0 249.603554 249.603554 0 0 1-352.515269 0 42.642976 42.642976 0 0 0-60.26874 60.26874 334.889506 334.889506 0 0 0 473.052749 0 42.642976 42.642976 0 0 0 0-60.26874z m85.854525 146.123265a454.858412 454.858412 0 0 1-644.193226 0 42.642976 42.642976 0 0 0-60.26874 60.26874 540.712937 540.712937 0 0 0 765.299279 0 42.642976 42.642976 0 0 0-60.26874-60.26874z"  horiz-adv-x="1024" />

    
    <glyph glyph-name="dacha" unicode="&#59043;" d="M824.106667 42.666667a29.226667 29.226667 0 0 0-21.333334 8.533333L179.2 675.413333a29.226667 29.226667 0 1 0 41.386667 41.386667L844.8 92.586667a29.226667 29.226667 0 0 0-21.333333-49.92zM199.893333 42.666667a29.226667 29.226667 0 0 0-21.333333 49.92L803.413333 716.8a29.226667 29.226667 0 1 0 41.386667-41.386667L220.586667 51.2a29.226667 29.226667 0 0 0-20.693334-8.533333z"  horiz-adv-x="1024" />

    
    <glyph glyph-name="sousuoqingkong" unicode="&#59042;" d="M512 896a512 512 0 1 1 512-512A512 512 0 0 1 512 896z m257.92-702.08a48 48 0 1 0-67.84-67.84L512 316.16l-190.08-190.08a48 48 0 1 0-67.84 67.84L444.16 384l-190.08 190.08a48 48 0 0 0 67.84 67.84L512 451.84l190.08 190.08a48 48 0 0 0 67.84-67.84L579.84 384z"  horiz-adv-x="1024" />

    
    <glyph glyph-name="qitaxinxi" unicode="&#59041;" d="M508.977943-128a508.977943 508.977943 0 1 0 508.977944 508.977943 508.977943 508.977943 0 0 0-508.977944-508.977943z m0 930.793414a421.815471 421.815471 0 1 1 421.815471-421.815471A422.133582 422.133582 0 0 1 508.977943 802.793414zM272.621311 380.977943m-72.847468 0a72.847468 72.847468 0 1 1 145.694936 0 72.847468 72.847468 0 1 1-145.694936 0ZM508.977943 380.977943m-72.847468 0a72.847468 72.847468 0 1 1 145.694937 0 72.847468 72.847468 0 1 1-145.694937 0ZM745.334576 380.977943m-72.847468 0a72.847468 72.847468 0 1 1 145.694936 0 72.847468 72.847468 0 1 1-145.694936 0Z"  horiz-adv-x="1024" />

    
    <glyph glyph-name="wodemima" unicode="&#59038;" d="M851.52 480v96a320 320 0 0 1-320 320h-39.68a320 320 0 0 1-320-320v-96h-137.6v-476.48A131.84 131.84 0 0 1 165.76-128h692.48a131.84 131.84 0 0 1 131.52 131.52V480zM260.48 576a231.68 231.68 0 0 0 231.36 231.36h40.32A231.68 231.68 0 0 0 763.52 576v-96H260.48z m640-573.12a43.84 43.84 0 0 0-43.84-43.84H165.76a43.84 43.84 0 0 0-43.84 43.84V392.32h780.16zM512 318.08a128 128 0 1 1 128-128 128 128 0 0 1-128 128z m0-166.72A39.36 39.36 0 1 0 551.36 192 39.68 39.68 0 0 0 512 151.36z"  horiz-adv-x="1024" />

    
    <glyph glyph-name="wodexingming" unicode="&#59039;" d="M512 393.6a251.2 251.2 0 1 0 251.2 251.2A251.52 251.52 0 0 0 512 393.6z m0 416a163.52 163.52 0 1 1 163.52-163.52A163.52 163.52 0 0 1 512 808.32zM512-128C199.04-128 19.52-54.08 19.52 74.56c0 144 234.88 275.52 492.48 275.52s492.48-131.2 492.48-275.52C1004.48-54.08 824.96-128 512-128z m0 390.08c-231.04 0-404.8-113.92-404.8-187.52 0-56.96 138.88-114.56 404.8-114.56s404.8 57.6 404.8 114.56c0 73.6-173.76 187.52-404.8 187.52z"  horiz-adv-x="1024" />

    
    <glyph glyph-name="wodeshouji" unicode="&#59040;" d="M764.8-128H259.2A131.84 131.84 0 0 0 128 3.52V764.48A131.84 131.84 0 0 0 259.2 896h505.6A131.84 131.84 0 0 0 896 764.48v-760.96A131.84 131.84 0 0 0 764.8-128zM259.2 808.32a43.84 43.84 0 0 1-43.84-43.84v-760.96a43.84 43.84 0 0 1 43.84-43.84h505.6a43.84 43.84 0 0 1 43.84 43.84V764.48a43.84 43.84 0 0 1-43.84 43.84zM582.4 29.44h-140.8a43.84 43.84 0 0 0 0 87.68h140.8a43.84 43.84 0 0 0 0-87.68z"  horiz-adv-x="1024" />

    
    <glyph glyph-name="qiangzhiguanbi" unicode="&#59037;" d="M511.972801-127.997013a511.972801 511.972801 0 1 0 362.647401 149.3254 510.692869 510.692869 0 0 0-362.647401-149.3254z m0 963.575476A451.602675 451.602675 0 1 1 831.955802 703.958789a450.536065 450.536065 0 0 1-319.983001 131.619674zM355.821097 197.745681a30.078402 30.078402 0 0 0-21.3322 51.410603l312.303409 312.303408a30.078402 30.078402 0 0 0 42.6644-42.6644L377.153297 206.491883a30.078402 30.078402 0 0 0-21.3322-8.746202zM668.124506 197.745681a30.078402 30.078402 0 0 0-21.3322 8.746202L334.488897 518.795292a30.078402 30.078402 0 0 0 42.6644 42.6644l312.303409-312.303408a30.078402 30.078402 0 0 0-21.3322-51.410603z"  horiz-adv-x="1025" />

    
    <glyph glyph-name="cha1" unicode="&#59036;" d="M950.72-96a40.96 40.96 0 0 0-29.12 12.16L44.16 793.92a41.28 41.28 0 0 0 57.92 57.92l877.76-877.76a41.28 41.28 0 0 0-29.12-70.08zM73.28-96a41.28 41.28 0 0 0-29.12 70.08L921.6 851.84a41.28 41.28 0 1 0 58.24-58.24L102.08-83.84a40.96 40.96 0 0 0-28.8-12.16z"  horiz-adv-x="1024" />

    
    <glyph glyph-name="baojingmingxi" unicode="&#59028;" d="M806.74382-10.785165H221.844991a43.942071 43.942071 0 0 0-43.942071 43.942071V384.053541a336.391486 336.391486 0 1 0 672.782971 0v-351.109946a43.942071 43.942071 0 0 0-43.942071-43.72876zM982.298793-127.892918H46.290018a43.942071 43.942071 0 1 0 0 87.670831h936.008775a43.942071 43.942071 0 1 0 0-87.670831zM514.294406 739.003086a43.942071 43.942071 0 0 0-43.942071 43.942071V852.057929a43.942071 43.942071 0 0 0 87.670831 0v-69.326083A43.942071 43.942071 0 0 0 514.294406 739.003086zM300.983381 681.62242a43.72876 43.72876 0 0 0-37.969362 21.331103l-35.40963 60.580331a43.942071 43.942071 0 1 0 75.938724 43.942071L338.31281 746.682283A43.942071 43.942071 0 0 0 300.983381 681.62242zM143.559845 524.838817a42.662205 42.662205 0 0 0-21.331103 5.972709L61.648411 565.367912a43.942071 43.942071 0 0 0 43.942072 75.938725l59.940397-34.556386a43.942071 43.942071 0 0 0-21.331102-81.911434zM885.028966 524.838817a43.942071 43.942071 0 0 0-21.331102 81.911434l59.940398 34.556386a43.942071 43.942071 0 0 0 43.942071-75.938725l-59.940398-34.556386a42.662205 42.662205 0 0 0-22.610969-5.972709zM727.60543 681.62242A43.942071 43.942071 0 0 0 690.276001 746.682283l34.556386 59.940398a43.942071 43.942071 0 1 0 75.938725-43.942071L766.214726 704.020078A43.72876 43.72876 0 0 0 727.60543 681.62242z"  horiz-adv-x="1029" />

    
    <glyph glyph-name="tingjimingxi" unicode="&#59031;" d="M512 896a512 512 0 1 1 512-512A512 512 0 0 1 512 896z m-64-704a21.333333 21.333333 0 0 0-21.333333-21.333333h-85.333334a21.333333 21.333333 0 0 0-21.333333 21.333333V576a21.333333 21.333333 0 0 0 21.333333 21.333333h85.333334a21.333333 21.333333 0 0 0 21.333333-21.333333z m256 0a21.333333 21.333333 0 0 0-21.333333-21.333333h-85.333334a21.333333 21.333333 0 0 0-21.333333 21.333333V576a21.333333 21.333333 0 0 0 21.333333 21.333333h85.333334a21.333333 21.333333 0 0 0 21.333333-21.333333z"  horiz-adv-x="1024" />

    
    <glyph glyph-name="yichangxunhuan" unicode="&#59029;" d="M512 896a512 512 0 1 1 512-512A512 512 0 0 1 512 896z m0-842.026667a42.666667 42.666667 0 1 0 42.666667 42.666667 42.666667 42.666667 0 0 0-42.666667-42.666667z m42.666667 200.533334a42.666667 42.666667 0 0 0-85.333334 0V671.36a42.666667 42.666667 0 0 0 85.333334 0z"  horiz-adv-x="1024" />

    
    <glyph glyph-name="mingxi" unicode="&#59030;" d="M775.36-128H248.64a160 160 0 0 0-160 160V736a160 160 0 0 0 160 160h526.72a160 160 0 0 0 160-160v-704a160 160 0 0 0-160-160zM248.64 808.32A73.28 73.28 0 0 1 175.68 736v-704a73.28 73.28 0 0 1 73.28-73.28h526.4A73.28 73.28 0 0 1 848.32 32V736a73.28 73.28 0 0 1-73.28 73.28zM700.48 539.52h-259.84a43.84 43.84 0 0 0 0 87.68h259.52a43.84 43.84 0 0 0 0-87.68zM700.48 340.16h-259.84a43.84 43.84 0 0 0 0 87.68h259.52a43.84 43.84 0 0 0 0-87.68zM700.48 140.8h-259.84a43.84 43.84 0 0 0 0 87.68h259.52a43.84 43.84 0 0 0 0-87.68zM323.52 583.36m-43.84 0a43.84 43.84 0 1 1 87.68 0 43.84 43.84 0 1 1-87.68 0ZM323.52 384m-43.84 0a43.84 43.84 0 1 1 87.68 0 43.84 43.84 0 1 1-87.68 0ZM323.52 184.64m-43.84 0a43.84 43.84 0 1 1 87.68 0 43.84 43.84 0 1 1-87.68 0Z"  horiz-adv-x="1024" />

    
    <glyph glyph-name="zhengchangbiaoji" unicode="&#59032;" d="M512-128a512 512 0 1 0 512 512 512 512 0 0 0-512-512z m0 963.84A451.84 451.84 0 1 1 963.84 384 452.266667 452.266667 0 0 1 512 835.84zM431.36 182.4a30.08 30.08 0 0 0-21.333333 8.746667l-183.466667 183.466666a30.08 30.08 0 0 0 42.666667 42.666667l183.466666-183.466667a30.08 30.08 0 0 0-21.333333-51.413333zM433.066667 182.4a30.08 30.08 0 0 0-21.333334 51.413333L754.773333 576a30.08 30.08 0 0 0 42.666667-42.666667L454.4 192a30.08 30.08 0 0 0-21.333333-9.6z"  horiz-adv-x="1024" />

    
    <glyph glyph-name="guanjimingxi" unicode="&#59033;" d="M512 896a512 512 0 1 1 512-512A512 512 0 0 1 512 896z m-32-146.56a32 32 0 1 0 64 0v-272a32 32 0 0 0-64 0zM512-13.44a373.333333 373.333333 0 0 0-118.186667 727.466667 32 32 0 0 0 20.266667-60.8 309.333333 309.333333 0 1 1 195.84 0 32 32 0 1 0 20.266667 60.8A373.333333 373.333333 0 0 0 512-13.44z"  horiz-adv-x="1024" />

    
    <glyph glyph-name="zhengchangxunhuan" unicode="&#59034;" d="M1061.76 291.84l-153.386667 190.293333a39.68 39.68 0 0 1-64 0l-153.173333-190.293333a23.253333 23.253333 0 0 1 15.786667-36.906667h58.88c0-110.933333 0-253.653333-200.746667-369.92-5.333333-5.333333 0-10.666667 5.333333-10.666666C945.493333-67.413333 977.066667 186.24 977.066667 254.933333h64a23.68 23.68 0 0 1 21.333333 36.906667zM487.04 572.8l-26.88 57.386667c100.48 46.933333 229.76 106.666667 420.053333-25.386667 7.04-2.56 9.6 4.48 7.253334 9.173333-211.2 315.306667-454.4 236.8-516.693334 207.786667L343.893333 879.146667a21.333333 21.333333 0 0 1-40.32-1.28l-106.666666-219.306667a39.68 39.68 0 0 1 26.88-57.386667l237.226666-58.453333a23.253333 23.253333 0 0 1 26.88 30.08zM334.933333 177.493333l-44.8-44.8C211.626667 211.2 110.72 311.893333 170.666667 536.106667c0 7.466667-7.466667 7.466667-11.306667 3.84C-64 233.6 91.946667 31.786667 140.586667-16.853333l-44.8-44.8a21.333333 21.333333 0 0 1 14.933333-37.333334l242.986667-26.24a39.68 39.68 0 0 1 44.8 44.8l-26.24 242.986667a23.253333 23.253333 0 0 1-37.333334 14.933333z"  horiz-adv-x="1066" />

    
    <glyph glyph-name="xunhuanjilu" unicode="&#59035;" d="M513.05504-53.44A437.12 437.12 0 0 0 75.93504 388.8a43.84 43.84 0 0 0 43.84 43.2 43.84 43.84 0 0 0 43.52-44.48 349.44 349.44 0 0 1 596.48-251.2 352 352 0 0 1 48.32 60.48 43.84 43.84 0 1 0 74.24-47.04A437.76 437.76 0 0 0 513.05504-53.44zM44.89504 344.32a43.84 43.84 0 0 0-32 74.88l74.56 74.56a43.84 43.84 0 0 0 62.08-62.08l-73.6-74.56a43.84 43.84 0 0 0-31.04-12.8zM193.05504 344.32a43.84 43.84 0 0 0-32 12.8l-72.32 74.56a43.84 43.84 0 1 0 62.08 62.08L225.05504 419.2a43.84 43.84 0 0 0-32-74.88zM906.33504 336a43.84 43.84 0 0 0-43.52 44.48 349.44 349.44 0 0 1-644.8 192 43.84 43.84 0 1 0-74.56 45.44 437.12 437.12 0 0 0 807.04-238.4 43.84 43.84 0 0 0-44.16-43.52zM906.65504 261.44a43.84 43.84 0 0 0-32 74.88l74.56 74.56a43.84 43.84 0 1 0 63.04-62.08l-74.56-74.56a43.84 43.84 0 0 0-31.04-12.8zM906.33504 261.44a43.84 43.84 0 0 0-32 12.8L801.05504 348.8a43.84 43.84 0 1 0 62.08 62.08l74.56-74.56a43.84 43.84 0 0 0-32-74.88z"  horiz-adv-x="1025" />

    
    <glyph glyph-name="guanjijilu" unicode="&#59027;" d="M512-128A478.4 478.4 0 0 0 311.36 784.64 43.84 43.84 0 0 0 348.16 704a390.4 390.4 0 1 1 327.68 0 43.84 43.84 0 0 0 36.8 79.68A478.4 478.4 0 0 0 512-128zM512 413.44a43.84 43.84 0 0 0-43.84 43.84V852.16a43.84 43.84 0 1 0 87.68 0v-394.88A43.84 43.84 0 0 0 512 413.44z"  horiz-adv-x="1024" />

    
    <glyph glyph-name="lujing" unicode="&#59021;" d="M506.919087 89.341558a43.404947 43.404947 0 0 0-30.098321 12.039329c-31.682443 29.147847-295.914017 288.943879-295.914017 458.444949a326.012338 326.012338 0 1 0 651.707851 0c0-169.50107-265.498872-429.613926-295.914017-458.761774a43.404947 43.404947 0 0 0-29.781496-11.722504z m0 709.686722a239.202444 239.202444 0 0 1-238.88562-238.88562c0-90.928611 135.91768-260.746505 238.88562-365.932216 102.967939 105.502535 238.88562 275.320429 238.885619 365.932216A239.202444 239.202444 0 0 1 506.919087 799.02828zM506.919087 436.581133a147.957008 147.957008 0 1 0 147.957008 147.957008A147.957008 147.957008 0 0 0 506.919087 436.581133z m0 208.787299a60.83029 60.83029 0 1 1 60.83029-60.830291A61.147115 61.147115 0 0 1 506.919087 645.368432zM506.919087-128c-245.855757 0-506.919087 79.522932-506.919087 226.846291 0 107.086657 145.739237 192.946077 371.001407 219.242505a43.404947 43.404947 0 0 0 9.187908-86.176244c-181.857222-21.227237-294.329895-85.542596-294.329895-133.066261 0-57.028397 163.481405-140.036398 420.109193-140.036397s420.109193 83.008 420.109193 140.036397c0 47.523664-112.472672 111.839023-294.329894 133.066261a43.404947 43.404947 0 1 0 10.138381 86.493069C868.098936 292.109193 1013.838173 205.932948 1013.838173 98.846291 1013.838173-48.477068 752.774844-128 506.919087-128z"  horiz-adv-x="1024" />

    
    <glyph glyph-name="baojing" unicode="&#59022;" d="M804.48-10.88H219.52A43.84 43.84 0 0 0 175.68 32V384a336.32 336.32 0 1 0 672 0v-352a43.84 43.84 0 0 0-43.2-42.88zM263.36 76.8h497.28V384a248.64 248.64 0 1 1-497.28 0zM980.16-128H43.84a43.84 43.84 0 1 0 0 87.68h936.32a43.84 43.84 0 0 0 0-87.68zM512 738.88a43.84 43.84 0 0 0-43.84 43.84V852.16a43.84 43.84 0 1 0 87.68 0v-69.44A43.84 43.84 0 0 0 512 738.88zM297.92 681.6A43.84 43.84 0 0 0 259.84 704L224 763.52a43.84 43.84 0 0 0 77.44 43.84l34.56-59.84A43.84 43.84 0 0 0 297.92 681.6zM141.12 524.8a43.52 43.52 0 0 0-21.76 5.76l-60.16 34.88A43.84 43.84 0 1 0 103.36 640L163.2 608a43.84 43.84 0 0 0-22.08-81.92zM882.88 524.8A43.84 43.84 0 0 0 860.8 608l59.84 32a43.84 43.84 0 1 0 43.84-75.84l-59.84-34.56a43.52 43.52 0 0 0-21.76-4.8zM726.08 681.6a43.84 43.84 0 0 0-38.08 65.92l34.56 60.16A43.84 43.84 0 1 0 800 763.52L764.16 704a43.84 43.84 0 0 0-38.08-22.4z"  horiz-adv-x="1024" />

    
    <glyph glyph-name="kaidongshuai" unicode="&#59023;" d="M512-128a512 512 0 1 0 512 512 512 512 0 0 0-512-512z m0 936.32A424.32 424.32 0 1 1 936.32 384 424.64 424.64 0 0 1 512 808.32zM512 340.16A43.84 43.84 0 0 0 468.16 384V679.04a43.84 43.84 0 1 0 87.68 0V384A43.84 43.84 0 0 0 512 340.16zM741.44 340.16H512a43.84 43.84 0 0 0 0 87.68h229.44a43.84 43.84 0 1 0 0-87.68z"  horiz-adv-x="1024" />

    
    <glyph glyph-name="tingji" unicode="&#59024;" d="M512-128a512 512 0 1 0 512 512 512 512 0 0 0-512-512z m0 936.32A424.32 424.32 0 1 1 936.32 384 424.64 424.64 0 0 1 512 808.32zM387.52 192a43.84 43.84 0 0 0-43.84 43.84v295.68a43.84 43.84 0 0 0 87.68 0v-295.36A43.84 43.84 0 0 0 387.52 192zM636.48 192a43.84 43.84 0 0 0-43.84 43.84v295.68a43.84 43.84 0 0 0 87.68 0v-295.36A43.84 43.84 0 0 0 636.48 192z"  horiz-adv-x="1024" />

    
    <glyph glyph-name="zhankai1" unicode="&#59025;" d="M712.64 768a42.56 42.56 0 0 0 30.08-72.96L401.6 353.92a42.56 42.56 0 1 0-60.48 60.48L682.56 755.52a42.56 42.56 0 0 0 30.08 12.48zM371.52 426.56a42.56 42.56 0 0 0 30.08-12.48l341.44-341.12a42.56 42.56 0 1 0-60.48-60.48L341.12 353.92a42.56 42.56 0 0 0 30.08 72.96z"  horiz-adv-x="1024" />

    
    <glyph glyph-name="zuoye" unicode="&#59026;" d="M512.2208 169.28A214.72 214.72 0 1 0 726.9408 384 214.72 214.72 0 0 0 512.2208 169.28zM512.2208 512a128 128 0 1 1 128-128 128 128 0 0 1-128 128zM631.2608-112a43.84 43.84 0 0 0-43.52 38.08 76.16 76.16 0 0 1-151.04 0 43.84 43.84 0 0 0-54.72-36.8 512 512 0 0 0-233.6 134.4 43.84 43.84 0 0 0 4.48 65.92 76.16 76.16 0 0 1-75.2 130.88 43.84 43.84 0 0 0-59.2 29.12 500.8 500.8 0 0 0 0 269.44 43.84 43.84 0 0 0 59.2 29.12A76.16 76.16 0 0 1 153.1808 678.4a43.84 43.84 0 0 0-4.48 65.92 512 512 0 0 0 233.6 134.4A44.48 44.48 0 0 0 416.2208 872.64a43.84 43.84 0 0 0 19.2-32 76.16 76.16 0 0 1 151.04 0 43.84 43.84 0 0 0 19.2 32 44.48 44.48 0 0 0 36.8 6.08 512 512 0 0 0 233.6-134.4 43.84 43.84 0 0 0-4.48-65.92 76.16 76.16 0 0 1 75.2-130.88 43.84 43.84 0 0 0 59.2-29.12 500.48 500.48 0 0 0 0-269.44 43.84 43.84 0 0 0-59.2-29.12 76.8 76.8 0 0 1-96-32 76.48 76.48 0 0 1 20.16-98.88 43.84 43.84 0 0 0 4.48-65.92 512 512 0 0 0-233.6-134.4 44.8 44.8 0 0 0-10.56-0.64zM241.8208 57.28a424.64 424.64 0 0 1 122.56-70.4 163.52 163.52 0 0 0 295.68 0 424.64 424.64 0 0 1 122.56 70.4 163.52 163.52 0 0 0 147.84 256 403.52 403.52 0 0 1 0 141.12 163.52 163.52 0 0 0-147.84 256 424.64 424.64 0 0 1-122.56 70.4 163.52 163.52 0 0 0-295.68 0 424.64 424.64 0 0 1-122.56-70.4 163.52 163.52 0 0 0-147.84-256 403.52 403.52 0 0 1 0-141.12 163.52 163.52 0 0 0 147.84-256z"  horiz-adv-x="1024" />

    
    <glyph glyph-name="hebi" unicode="&#59018;" d="M896 213.44a42.56 42.56 0 0 0-72.96-30.08L481.92 524.48a42.56 42.56 0 0 0 60.48 60.48l341.12-341.44a42.56 42.56 0 0 0 12.48-30.08zM554.56 554.56a42.56 42.56 0 0 0-12.48-30.08L200.96 183.04a42.56 42.56 0 0 0-60.48 60.48L481.92 584.96a42.56 42.56 0 0 0 72.96-30.08z"  horiz-adv-x="1024" />

    
    <glyph glyph-name="kaizhan" unicode="&#59019;" d="M341.44 0a42.56 42.56 0 0 0-30.08 72.96l341.12 341.12a42.56 42.56 0 0 0 60.48-60.48L371.52 12.48a42.56 42.56 0 0 0-30.08-12.48zM682.56 341.44a42.56 42.56 0 0 0-30.08 12.48L311.04 695.04a42.56 42.56 0 1 0 60.48 60.48l341.44-341.44a42.56 42.56 0 0 0-30.08-72.96z"  horiz-adv-x="1024" />

    
    <glyph glyph-name="zhankai" unicode="&#59020;" d="M128 554.56a42.56 42.56 0 0 0 72.96 30.08l341.12-341.12a42.56 42.56 0 0 0-60.48-60.48L140.48 524.48a42.56 42.56 0 0 0-12.48 30.08zM469.44 213.44a42.56 42.56 0 0 0 12.48 30.08L823.04 584.96a42.56 42.56 0 1 0 60.48-60.48L542.08 183.04a42.56 42.56 0 0 0-72.96 30.08z"  horiz-adv-x="1024" />

    
    <glyph glyph-name="logo" unicode="&#59013;" d="M938.584905 464.035007c3.199387-232.702065-153.783858-457.085725-368.78265-546.881848a638.171017 638.171017 0 0 0-130.321689-38.605934 469.243395 469.243395 0 0 0-56.735792-6.398773c-28.154604-1.70634-37.112887 11.3045-27.088142 37.752764a153.783858 153.783858 0 0 1-24.528632 161.249094 227.156462 227.156462 0 0 1-52.043358 42.65849 424.878565 424.878565 0 0 0-139.919849 560.959149c29.647651 53.109821 78.491622 75.505528 130.108396 59.93518a108.352566 108.352566 0 0 0 61.854811-158.689585 205.400632 205.400632 0 0 1-2.559509-204.120877 208.600018 208.600018 0 1 1 219.264641 303.728452 260.216792 260.216792 0 0 1-35.833132 3.839264A106.646226 106.646226 0 0 0 405.353774 789.305996a107.925981 107.925981 0 0 0 111.125367 106.646226 425.091857 425.091857 0 0 0 405.25566-310.980395 495.265074 495.265074 0 0 0 16.850104-120.93682z"  horiz-adv-x="1024" />

    
    <glyph glyph-name="cha" unicode="&#59014;" d="M953.813333-85.333333a27.306667 27.306667 0 0 0-19.413333 8.106666L50.773333 806.613333A27.52 27.52 0 0 0 89.6 845.226667l883.626667-883.84a27.52 27.52 0 0 0-19.413334-46.72zM70.186667-85.333333a27.52 27.52 0 0 0-19.413334 46.72L934.613333 845.226667a27.52 27.52 0 1 0 38.826667-38.826667L89.6-77.226667a27.306667 27.306667 0 0 0-19.413333-8.106666z"  horiz-adv-x="1024" />

    
    <glyph glyph-name="bangdingxinxi" unicode="&#59015;" d="M238.988823-127.99936a238.662423 238.662423 0 0 0-168.919249 407.581671l112.29291 112.292909a43.829426 43.829426 0 0 0 62.065027-62.065027L132.134601 217.517284a151.00357 151.00357 0 0 1 213.708443-213.708443l223.945973 223.945973a151.323493 151.323493 0 0 1 0 213.708443 43.829426 43.829426 0 0 0 62.065027 62.065027 239.302268 239.302268 0 0 0 0-337.838497l-223.945973-223.945973A238.022577 238.022577 0 0 0 238.988823-127.99936zM422.944443 250.789257a43.829426 43.829426 0 0 0-31.992281 12.796913 239.302268 239.302268 0 0 0 0 337.838496l223.945973 223.945973a238.982346 238.982346 0 0 0 339.43811-337.19865l-112.292909-112.29291a43.829426 43.829426 0 0 0-62.065027 62.065027l112.292909 112.292909a151.00357 151.00357 0 0 1-213.708443 213.708443l-223.945973-223.945973a151.323493 151.323493 0 0 1 0-213.708443 43.829426 43.829426 0 0 0-31.992281-74.861939z"  horiz-adv-x="1024" />

    
    <glyph glyph-name="bangdingjilu" unicode="&#59016;" d="M786.88-128H260.48a160 160 0 0 0-160 160V657.92a160 160 0 0 0 160 160h526.4a160 160 0 0 0 160-160V32a160 160 0 0 0-160-160zM260.48 731.2a73.28 73.28 0 0 1-73.28-73.28V32a73.28 73.28 0 0 1 73.28-73.28h526.4A73.28 73.28 0 0 1 860.16 32V657.92a73.28 73.28 0 0 1-73.28 73.28zM369.28 654.08a43.84 43.84 0 0 0-43.84 43.84V852.16a43.84 43.84 0 1 0 87.68 0v-154.24a43.84 43.84 0 0 0-43.84-43.84zM678.08 654.08a43.84 43.84 0 0 0-43.84 43.84V852.16a43.84 43.84 0 0 0 87.68 0v-154.24a43.84 43.84 0 0 0-43.84-43.84zM904 515.2H143.36a43.84 43.84 0 1 0 0 87.68h760.64a43.84 43.84 0 0 0 0-87.68zM390.4-36.48a139.2 139.2 0 0 0-98.24 237.44L346.88 256a43.84 43.84 0 0 0 62.08-62.08l-54.72-54.72a51.2 51.2 0 0 1 72.64-72.64l109.76 109.76a51.52 51.52 0 0 1 0 72.64 43.84 43.84 0 0 0 62.08 62.08 139.2 139.2 0 0 0 0-196.8l-109.76-109.76a138.56 138.56 0 0 0-98.56-40.96zM480 148.48a43.84 43.84 0 0 0-32 12.8 139.2 139.2 0 0 0 0 196.8l109.76 109.76a139.2 139.2 0 0 0 196.8-196.8l-54.72-54.72A43.84 43.84 0 0 0 640 278.08l54.72 54.72a51.2 51.2 0 0 1-72.64 72.64L512 296A51.52 51.52 0 0 1 512 224a43.84 43.84 0 0 0-32-74.88z"  horiz-adv-x="1024" />

    
    <glyph glyph-name="weixindenglu" unicode="&#59017;" d="M635.306667 496.042667a213.333333 213.333333 0 0 0 23.722666-1.450667c-21.333333 99.328-128 173.226667-248.832 173.226667-135.594667 0-246.613333-92.416-246.613333-209.749334 0-67.754667 36.949333-123.306667 98.730667-166.485333l-24.661334-74.154667 86.186667 43.264c30.890667-6.144 55.637333-12.373333 86.357333-12.373333 7.765333 0 15.445333 0 23.04 0.938667a183.552 183.552 0 0 0-7.594666 51.712c0 107.776 92.501333 195.157333 209.664 195.157333zM502.698667 563.2a30.805333 30.805333 0 1 0 0-61.610667c-18.517333 0-37.034667 12.373333-37.034667 30.890667s18.517333 30.72 37.034667 30.72z m-172.629334-61.952c-18.517333 0-37.12 12.373333-37.12 30.890667S311.637333 563.2 330.069333 563.2a30.805333 30.805333 0 0 0 0-61.610667z m530.261334-197.461333c0 98.56-98.645333 179.2-209.493334 179.2-117.333333 0-209.749333-80.384-209.749333-179.2s92.416-179.2 209.749333-179.2A309.589333 309.589333 0 0 1 725.333333 137.216l67.669334-37.034667L774.058667 162.133333c49.493333 37.12 86.357333 86.357333 86.357333 141.994667z m-277.418667 30.890666a24.661333 24.661333 0 0 0 0 49.322667c18.688 0 30.890667-12.373333 30.890667-24.661333s-12.202667-24.661333-30.890667-24.661334z m135.68 0a24.661333 24.661333 0 0 0 0 49.322667c18.517333 0 30.890667-12.373333 30.890667-24.661333s-12.373333-24.661333-30.890667-24.661334z m0 0M512 870.4A486.4 486.4 0 1 0 25.6 384 486.912 486.912 0 0 0 512 870.4m0 25.6a512 512 0 1 1 512-512A512 512 0 0 1 512 896z"  horiz-adv-x="1024" />

    
    <glyph glyph-name="erweima" unicode="&#58983;" d="M93.866667 544.213333a29.866667 29.866667 0 0 0-29.866667 29.866667v170.666667A87.04 87.04 0 0 0 150.826667 832h170.666666a29.866667 29.866667 0 1 0 0-59.733333h-170.666666A27.093333 27.093333 0 0 1 123.733333 745.173333v-170.666666a29.866667 29.866667 0 0 0-29.866666-30.293334zM321.92-64h-170.666667A87.04 87.04 0 0 0 64 22.826667v170.666666a29.866667 29.866667 0 0 0 59.733333 0v-170.666666a27.093333 27.093333 0 0 1 27.093334-27.093334h170.666666a29.866667 29.866667 0 1 0 0-59.733333zM873.173333-64h-170.666666a29.866667 29.866667 0 0 0 0 59.733333h170.666666a27.093333 27.093333 0 0 1 27.093334 27.093334v170.666666a29.866667 29.866667 0 1 0 59.733333 0v-170.666666A87.04 87.04 0 0 0 873.173333-64zM930.133333 544.213333a29.866667 29.866667 0 0 0-29.866666 29.866667v170.666667a27.093333 27.093333 0 0 1-27.093334 27.52h-170.666666a29.866667 29.866667 0 1 0 0 59.733333h170.666666A87.04 87.04 0 0 0 960 745.173333v-170.666666a29.866667 29.866667 0 0 0-29.866667-30.293334zM930.133333 354.346667H93.866667a29.866667 29.866667 0 1 0 0 59.733333h836.266666a29.866667 29.866667 0 1 0 0-59.733333z"  horiz-adv-x="1024" />

    
    <glyph glyph-name="gengduo" unicode="&#58984;" d="M512-128a512 512 0 1 0 512 512 512 512 0 0 0-512-512z m0 963.84A451.84 451.84 0 1 1 963.84 384 452.266667 452.266667 0 0 1 512 835.84zM732.8 414.08h-190.72v190.72a30.08 30.08 0 0 1-60.16 0v-190.72h-190.72a30.08 30.08 0 0 1 0-60.16h190.72v-190.72a30.08 30.08 0 0 1 60.16 0v190.72h190.72a30.08 30.08 0 0 1 0 60.16z"  horiz-adv-x="1024" />

    
    <glyph glyph-name="guanyuwomen" unicode="&#58985;" d="M512-128a512 512 0 1 0 512 512 512 512 0 0 0-512-512z m0 936.32A424.32 424.32 0 1 1 936.32 384 424.64 424.64 0 0 1 512 808.32zM468.16 473.6h87.68v-340.16h-87.68zM468.16 634.56h87.68v-89.6h-87.68z"  horiz-adv-x="1024" />

    
    <glyph glyph-name="fuwuqixian" unicode="&#58986;" d="M950.72 485.76h-20.48a419.84 419.84 0 0 1-836.48 0h-20.48A73.28 73.28 0 0 1 0 412.8v-239.04a73.28 73.28 0 0 1 73.28-73.28h122.56a73.28 73.28 0 0 1 73.28 73.28V412.8a73.28 73.28 0 0 1-73.28 73.28h-13.76a332.16 332.16 0 0 0 660.16 0h-13.76a73.28 73.28 0 0 1-73.28-73.28v-239.04a73.28 73.28 0 0 1 73.28-73.28h10.56a119.04 119.04 0 0 0-97.6-50.56A153.28 153.28 0 0 1 608 111.04c-83.52 0-146.24-45.44-146.24-105.6s64-105.28 146.24-105.28a152.64 152.64 0 0 1 134.08 62.08c96 4.48 175.04 64 189.12 138.56h19.84A73.28 73.28 0 0 1 1024 173.76V412.8a73.28 73.28 0 0 1-73.28 72.96zM181.12 188.48H87.68v209.6h93.44zM608-12.16a84.48 84.48 0 0 0-57.6 17.6 84.16 84.16 0 0 0 57.6 17.6 84.16 84.16 0 0 0 57.6-17.6 84.48 84.48 0 0 0-57.6-17.6z m328.32 200.64h-93.44v209.6h93.44z"  horiz-adv-x="1024" />

    
    <glyph glyph-name="fanhui" unicode="&#58987;" d="M291.2 356.48a27.52 27.52 0 0 0-19.413333 47.146667l441.6 441.6a27.52 27.52 0 0 0 39.04-39.04l-441.6-441.6a27.52 27.52 0 0 0-19.626667-8.106667zM732.8-85.333333a27.52 27.52 0 0 0-19.413333 8.106666l-441.6 441.6a27.52 27.52 0 1 0 39.04 39.04l441.6-441.6a27.52 27.52 0 0 0-19.626667-47.146666z"  horiz-adv-x="1024" />

    
    <glyph glyph-name="buliangjilu" unicode="&#58988;" d="M775.36 818.88h-64v32a43.84 43.84 0 1 1-87.68 0v-32h-222.4v32a43.84 43.84 0 1 1-87.68 0v-32h-64a160 160 0 0 1-160-160V32a160 160 0 0 1 160-160h525.76a160 160 0 0 1 160 160V657.92a160 160 0 0 1-160 160.96zM248.64 731.2h64v-32a43.84 43.84 0 1 1 87.68 0v32h221.12v-32a43.84 43.84 0 1 1 87.68 0v32h64a73.28 73.28 0 0 0 73.28-73.28v-55.04h-672V657.92a73.28 73.28 0 0 0 74.24 73.28z m526.72-771.52H248.64A73.28 73.28 0 0 0 175.68 32V515.2h672V32a73.28 73.28 0 0 0-72.32-72.32zM512 470.4a43.84 43.84 0 0 1-43.84-43.84v-248.64a43.84 43.84 0 1 1 87.68 0v248.64A43.84 43.84 0 0 1 512 470.4zM512 57.28m-43.84 0a43.84 43.84 0 1 1 87.68 0 43.84 43.84 0 1 1-87.68 0Z"  horiz-adv-x="1024" />

    
    <glyph glyph-name="jibenxinxi" unicode="&#58989;" d="M768-128H240.64a160 160 0 0 0-160 160V736a160 160 0 0 0 160 160H768a160 160 0 0 0 160-160v-704a160 160 0 0 0-160-160zM240.64 808.32A73.28 73.28 0 0 1 167.68 736v-704a73.28 73.28 0 0 1 73.28-73.28H768A73.28 73.28 0 0 1 840.32 32V736A73.28 73.28 0 0 1 768 808.32zM675.84 539.52H332.16a43.84 43.84 0 1 0 0 87.68h343.68a43.84 43.84 0 0 0 0-87.68zM675.84 340.16H332.16a43.84 43.84 0 1 0 0 87.68h343.68a43.84 43.84 0 1 0 0-87.68zM675.84 140.8H332.16a43.84 43.84 0 1 0 0 87.68h343.68a43.84 43.84 0 1 0 0-87.68z"  horiz-adv-x="1024" />

    
    <glyph glyph-name="mima" unicode="&#58990;" d="M846.293333 467.84v209.066667A219.306667 219.306667 0 0 1 627.2 896H396.8A219.306667 219.306667 0 0 1 177.706667 676.906667v-209.066667H35.2v-505.386667A90.453333 90.453333 0 0 1 125.653333-128h772.693334a90.453333 90.453333 0 0 1 90.453333 90.453333V467.84z m-608.426666 209.066667a159.146667 159.146667 0 0 0 158.933333 158.933333h230.4a159.146667 159.146667 0 0 0 158.933333-158.933333v-209.066667h-548.266666z m690.56-714.453334a30.08 30.08 0 0 0-30.08-30.08H125.653333a30.08 30.08 0 0 0-30.08 30.08V407.466667h832zM512 301.013333a116.053333 116.053333 0 1 1 116.053333-116.053333A116.053333 116.053333 0 0 1 512 301.013333z m0-170.666666a55.68 55.68 0 1 0 55.68 55.68A55.893333 55.893333 0 0 0 512 129.28z"  horiz-adv-x="1024" />

    
    <glyph glyph-name="jincheng" unicode="&#58991;" d="M940.695505 577.562739a41.26994 41.26994 0 1 1-73.582064-38.07072 395.423615 395.423615 0 0 0 44.789083-184.275083 400.542368 400.542368 0 1 0-233.543074 363.751335l-57.585964-15.9961a41.26994 41.26994 0 0 1 22.394542-79.660583l149.403583 41.909784a41.26994 41.26994 0 0 1 28.792981 51.187523L779.454808 865.812478a41.26994 41.26994 0 1 1-79.660583-22.394541l13.756647-49.267991a483.082249 483.082249 0 1 1 281.531377-438.93301 484.361937 484.361937 0 0 1-54.386744 222.345803zM512 678.978019a41.26994 41.26994 0 0 1-41.26994-41.26994v-282.491143A41.26994 41.26994 0 0 1 512 313.627073h191.953211a41.26994 41.26994 0 1 1 0 82.859803h-150.683271V637.388157A41.26994 41.26994 0 0 1 512 678.978019z"  horiz-adv-x="1024" />

    
    <glyph glyph-name="shouji" unicode="&#58992;" d="M802.133333-128H221.866667a90.453333 90.453333 0 0 0-90.453334 90.453333V805.546667A90.453333 90.453333 0 0 0 221.866667 896h580.266666a90.453333 90.453333 0 0 0 90.453334-90.453333v-843.093334A90.453333 90.453333 0 0 0 802.133333-128zM221.866667 835.84A30.08 30.08 0 0 1 192 805.546667v-843.093334a30.08 30.08 0 0 1 30.08-30.08H802.133333a30.08 30.08 0 0 1 29.866667 30.08V805.546667a30.08 30.08 0 0 1-29.866667 30.293333zM584.533333 33.92h-145.066666a30.08 30.08 0 0 0 0 60.16h145.066666a30.08 30.08 0 0 0 0-60.16z"  horiz-adv-x="1024" />

    
    <glyph glyph-name="jiaose" unicode="&#58993;" d="M773.76128-90.24H249.60128a102.72 102.72 0 0 0-102.72 102.72V446.4H43.84128A43.84 43.84 0 0 0 0.00128 490.56V544c3.2 104.96 32 182.4 86.72 237.44A283.84 283.84 0 0 0 220.16128 854.4a45.44 45.44 0 0 0 39.68-2.88l6.08-3.84A489.6 489.6 0 0 1 512.00128 788.48a489.6 489.6 0 0 1 245.76 59.52l6.08 3.84a44.16 44.16 0 0 0 43.84 0 282.88 282.88 0 0 0 128-71.36c56.32-53.76 83.2-131.2 86.4-236.48l1.92-52.16a43.84 43.84 0 0 0-43.84-45.44h-103.68v-433.92a102.72 102.72 0 0 0-102.72-102.72zM88.32128 534.08H192.00128a43.84 43.84 0 0 0 43.84-43.84v-477.76a15.04 15.04 0 0 1 15.04-15.04h522.88a15.04 15.04 0 0 1 15.04 15.04V490.24A43.84 43.84 0 0 0 832.00128 534.08h102.4v8c-2.56 80.64-22.4 138.88-60.8 177.28a189.44 189.44 0 0 1-81.6 46.72A586.56 586.56 0 0 0 512.00128 700.48a586.24 586.24 0 0 0-280.64 65.92 188.8 188.8 0 0 1-81.92-46.72c-38.72-38.4-58.56-96-61.12-177.28z"  horiz-adv-x="1024" />

    
    <glyph glyph-name="shebei" unicode="&#58994;" d="M980.16 896H43.84A43.84 43.84 0 0 1 0 852.16v-707.84a43.84 43.84 0 0 1 43.84-43.84h424.32v-140.8h-153.6a43.84 43.84 0 0 1 0-87.68h394.88a43.84 43.84 0 0 1 0 87.68h-153.6v140.8h424.32A43.84 43.84 0 0 1 1024 144.32V852.16A43.84 43.84 0 0 1 980.16 896z m-43.84-707.52H87.68V808.32h848.64zM160 217.6h704a43.84 43.84 0 0 1 43.84 43.84V736A43.84 43.84 0 0 1 864 778.88H160A43.84 43.84 0 0 1 117.12 736v-473.6A43.84 43.84 0 0 1 160 217.6zM204.8 691.2h614.4v-385.92H204.8z"  horiz-adv-x="1024" />

    
    <glyph glyph-name="sousuo" unicode="&#58995;" d="M552.96-29.013333a419.84 419.84 0 1 0 296.96 123.093333 417.066667 417.066667 0 0 0-296.96-123.093333z m0 779.52a359.68 359.68 0 1 1 254.506667-105.173334 358.826667 358.826667 0 0 1-254.506667 105.386667zM956.586667-42.666667a29.866667 29.866667 0 0 0-21.333334 8.746667l-128 128a30.08 30.08 0 0 0 42.666667 42.666667l128-128a30.08 30.08 0 0 0-21.333333-51.2z"  horiz-adv-x="1024" />

    
    <glyph glyph-name="shichang" unicode="&#58996;" d="M921.6-40.32h-10.24A408 408 0 0 1 745.6 384a408 408 0 0 1 168.64 424.32h7.36a43.84 43.84 0 0 1 0 87.68H102.4a43.84 43.84 0 0 1 0-87.68h10.24A408 408 0 0 1 278.4 384a408 408 0 0 1-168.64-424.32H102.4a43.84 43.84 0 0 1 0-87.68h819.2a43.84 43.84 0 0 1 0 87.68zM187.84 46.72A322.24 322.24 0 0 0 384 344l6.08 3.2a43.52 43.52 0 0 1 8 7.04l2.56 3.2a43.52 43.52 0 0 1 3.52 5.76s0 1.92 1.92 2.88a43.84 43.84 0 0 1-23.04 57.6 323.2 323.2 0 0 0-183.04 384h624.32a323.2 323.2 0 0 0-185.28-384l-3.2-1.92-4.16-2.24h-1.6a43.52 43.52 0 0 1-14.4-17.92 43.84 43.84 0 0 1 23.04-57.6 323.2 323.2 0 0 0 183.04-384H199.68a322.56 322.56 0 0 0-11.84 86.72zM732.48 675.52a43.84 43.84 0 1 1-87.68 0 132.48 132.48 0 1 0-265.28 0 43.84 43.84 0 0 1-87.68 0 220.8 220.8 0 0 1 176.32-216v-251.52a43.84 43.84 0 0 1 87.68 0v251.52a220.8 220.8 0 0 1 176.64 216z"  horiz-adv-x="1024" />

    
    <glyph glyph-name="wancheng" unicode="&#58997;" d="M693.12 75.306667a30.08 30.08 0 0 0-14.08 3.413333L512 166.613333l-167.04-87.893333a30.08 30.08 0 0 0-42.666667 31.786667l32 186.026666-136.32 131.626667a30.08 30.08 0 0 0 16.64 51.413333l186.666667 27.093334 83.413333 169.173333a30.08 30.08 0 0 0 53.973334 0l83.413333-169.173333 186.666667-27.093334a30.08 30.08 0 0 0 16.64-51.413333l-134.613334-131.626667 32-186.026666a30.08 30.08 0 0 0-29.653333-35.2zM512 230.613333a30.293333 30.293333 0 0 0 14.08-3.413333l128-66.773333-24.32 141.44a30.08 30.08 0 0 0 8.746667 26.666666l101.76 100.266667-142.08 21.333333a30.08 30.08 0 0 0-22.186667 15.786667l-64 128-64-128a30.08 30.08 0 0 0-22.613333-16.426667l-142.08-21.333333 102.826666-100.053333a30.08 30.08 0 0 0 8.746667-26.666667l-24.32-141.44 128 66.773333a30.293333 30.293333 0 0 0 13.44 3.84zM512-128a512 512 0 1 0 512 512 512 512 0 0 0-512-512z m0 963.84A451.84 451.84 0 1 1 963.84 384 452.266667 452.266667 0 0 1 512 835.84z"  horiz-adv-x="1024" />

    
    <glyph glyph-name="wodeweixuanzhong" unicode="&#58998;" d="M512 408.746667a243.626667 243.626667 0 1 0 243.626667 243.626666A243.84 243.84 0 0 0 512 408.746667z m0 426.666666a183.253333 183.253333 0 1 1 183.253333-183.253333A183.466667 183.466667 0 0 1 512 835.84zM512-128C364.16-128 20.053333-109.226667 20.053333 65.28c0 140.586667 234.666667 268.373333 491.946667 268.373333s491.946667-128 491.946667-268.373333C1003.946667-109.226667 659.84-128 512-128z m0 401.493333c-250.453333 0-431.786667-124.16-431.786667-208.213333 0-79.573333 173.44-133.12 431.786667-133.12s431.786667 53.546667 431.786667 133.12c0 84.053333-181.333333 208.213333-431.786667 208.213333z"  horiz-adv-x="1024" />

    
    <glyph glyph-name="shijian" unicode="&#58999;" d="M512-128a512 512 0 1 0 512 512 512 512 0 0 0-512-512z m0 910.08A398.08 398.08 0 1 1 910.08 384 398.506667 398.506667 0 0 1 512 782.08zM455.253333 737.706667h113.92v-410.88h-113.92zM455.253333 440.746667h343.04v-113.92h-343.04z"  horiz-adv-x="1024" />

    
    <glyph glyph-name="shouyexuanzhong" unicode="&#59000;" d="M802.136132-128h-164.266017a30.079881 30.079881 0 0 0-30.079881 30.079881v277.332235a84.053001 84.053001 0 0 1-84.053 84.053001h-23.679907a84.053001 84.053001 0 0 1-84.053-84.053001v-277.332235A30.079881 30.079881 0 0 0 386.137778-128h-164.266016a90.452975 90.452975 0 0 0-90.452976 90.452975V412.371194H30.085854a30.079881 30.079881 0 0 0-19.839921 52.693125L492.164025 888.52931a30.079881 30.079881 0 0 0 39.679843 0L1013.761961 465.064319a30.079881 30.079881 0 0 0-19.839922-52.693125h-101.332932v-449.918219A90.452975 90.452975 0 0 0 802.136132-128z"  horiz-adv-x="1024" />

    
    <glyph glyph-name="shanchu" unicode="&#59001;" d="M775.04-128H248.96a102.4 102.4 0 0 0-102.4 102.4V685.76A43.84 43.84 0 0 0 192 729.6h640a43.84 43.84 0 0 0 43.84-43.84V-25.6a102.4 102.4 0 0 0-100.8-102.4zM234.24 641.92V-25.6a14.72 14.72 0 0 1 14.72-14.72h526.08a14.72 14.72 0 0 1 14.72 14.72V641.92zM980.16 641.92H43.84a43.84 43.84 0 0 0 0 87.68h936.32a43.84 43.84 0 0 0 0-87.68zM642.88 641.92h-261.76a43.84 43.84 0 0 0-43.84 43.84v166.4A43.84 43.84 0 0 0 381.12 896h261.44a43.84 43.84 0 0 0 43.84-43.84v-166.4a43.84 43.84 0 0 0-43.52-43.84z m-217.6 87.68h173.76V808.32h-173.76zM368 84.16A43.84 43.84 0 0 0 324.16 128V470.08a43.84 43.84 0 0 0 87.68 0V128a43.84 43.84 0 0 0-43.84-43.84zM512 84.16A43.84 43.84 0 0 0 468.16 128V470.08a43.84 43.84 0 1 0 87.68 0V128A43.84 43.84 0 0 0 512 84.16zM656 84.16A43.84 43.84 0 0 0 611.84 128V470.08a43.84 43.84 0 0 0 87.68 0V128a43.84 43.84 0 0 0-43.52-43.84z"  horiz-adv-x="1024" />

    
    <glyph glyph-name="xiaoxiweixuanzhong" unicode="&#59002;" d="M512-128a161.493333 161.493333 0 0 0-158.293333 130.986667H168.746667a101.333333 101.333333 0 0 0-99.413334 77.013333 99.2 99.2 0 0 0 39.04 102.613333 57.386667 57.386667 0 0 1 21.333334 47.36V524.8A305.92 305.92 0 0 0 420.693333 829.866667a96 96 0 0 0 182.4 0 305.92 305.92 0 0 0 291.2-305.066667v-294.826667a57.386667 57.386667 0 0 1 21.333334-47.36 99.2 99.2 0 0 0 39.04-102.613333 101.333333 101.333333 0 0 0-99.413334-77.013333h-184.96A161.493333 161.493333 0 0 0 512-128zM435.2 769.92A245.546667 245.546667 0 0 1 189.866667 524.8v-294.826667a117.546667 117.546667 0 0 0-46.72-96.426666A38.613333 38.613333 0 0 1 128 93.226667 40.746667 40.746667 0 0 1 168.746667 64h213.333333a30.08 30.08 0 0 0 30.08-30.08 100.906667 100.906667 0 1 1 201.813333 0A30.08 30.08 0 0 0 642.986667 64h213.333333a40.746667 40.746667 0 0 1 40.533333 29.866667 38.613333 38.613333 0 0 1-15.36 40.533333 117.546667 117.546667 0 0 0-46.506666 96.426667V524.8A245.546667 245.546667 0 0 1 588.8 769.92h-10.88a30.08 30.08 0 0 0-30.08 30.08 35.84 35.84 0 0 1-71.466667 0 30.08 30.08 0 0 0-30.08-30.08zM754.986667 494.506667A30.08 30.08 0 0 0 725.333333 524.8a136.32 136.32 0 0 1-136.533333 136.533333 30.08 30.08 0 1 0 0 60.16 196.48 196.48 0 0 0 196.266667-196.266666 30.08 30.08 0 0 0-30.08-30.72z"  horiz-adv-x="1024" />

    
    <glyph glyph-name="weixin" unicode="&#59003;" d="M967.36 78.4a253.12 253.12 0 0 1 56.64 160c0 128-101.76 238.4-240 270.72 0 185.28-176.64 336-392 336S0 692.16 0 505.92a304 304 0 0 1 70.4-192 593.28 593.28 0 0 0-29.76-126.08 43.84 43.84 0 0 1 64-51.84 819.84 819.84 0 0 0 129.6 64 448 448 0 0 1 151.36-28.16c35.52-121.6 162.88-212.16 314.24-212.16a366.72 366.72 0 0 1 128 22.72A706.56 706.56 0 0 0 928-69.76a43.84 43.84 0 0 1 64 51.84 512 512 0 0 0-24.64 96.32zM258.24 281.28c-12.16 4.8-32 12.48-106.88-23.04 15.36 76.16 0 94.08-8.64 104a218.88 218.88 0 0 0-55.36 143.36c0 137.92 136.64 249.92 304.32 249.92 162.88 0 296-105.92 303.68-238.4-169.6-1.6-308.16-116.48-320-261.44a356.48 356.48 0 0 0-117.12 25.6zM893.76 128c-7.68-8.96-19.52-22.72-11.52-74.88-52.48 22.4-67.2 16.32-78.08 12.16a277.76 277.76 0 0 0-104.64-19.84c-130.56 0-236.8 86.4-236.8 192s106.24 192 236.8 192 236.8-86.4 236.8-192A168 168 0 0 0 893.76 128zM605.12 267.84m-41.92 0a41.92 41.92 0 1 1 83.84 0 41.92 41.92 0 1 1-83.84 0ZM793.92 267.84m-41.92 0a41.92 41.92 0 1 1 83.84 0 41.92 41.92 0 1 1-83.84 0ZM509.12 544m-52.16 0a52.16 52.16 0 1 1 104.32 0 52.16 52.16 0 1 1-104.32 0ZM274.88 544m-52.16 0a52.16 52.16 0 1 1 104.32 0 52.16 52.16 0 1 1-104.32 0Z"  horiz-adv-x="1024" />

    
    <glyph glyph-name="tiaoxingma" unicode="&#59004;" d="M933.546667 3.413333H90.453333A90.453333 90.453333 0 0 0 0 93.866667V674.133333a90.453333 90.453333 0 0 0 90.453333 90.453334h843.093334A90.453333 90.453333 0 0 0 1024 674.133333v-580.266666a90.453333 90.453333 0 0 0-90.453333-90.453334zM90.453333 704a30.08 30.08 0 0 1-30.293333-29.866667v-580.266666A30.08 30.08 0 0 1 90.453333 64h843.093334a30.08 30.08 0 0 1 30.08 30.08V674.133333A30.08 30.08 0 0 1 933.546667 704zM266.666667 281.173333a30.08 30.08 0 0 0-30.08 30.08V456.533333a30.08 30.08 0 0 0 60.16 0v-145.066666a30.08 30.08 0 0 0-30.08-30.293334zM512 281.173333a30.08 30.08 0 0 0-30.08 30.08V456.533333a30.08 30.08 0 0 0 60.16 0v-145.066666A30.08 30.08 0 0 0 512 281.173333zM757.333333 281.173333a30.08 30.08 0 0 0-30.08 30.08V456.533333a30.08 30.08 0 0 0 60.16 0v-145.066666a30.08 30.08 0 0 0-30.08-30.293334z"  horiz-adv-x="1024" />

    
    <glyph glyph-name="gongsi" unicode="&#59005;" d="M921.6 484.16h-229.12a101.12 101.12 0 0 1-14.72 0V793.6A102.4 102.4 0 0 1 576 896H102.4A102.4 102.4 0 0 1 0 793.6V-128h1024V381.76a102.4 102.4 0 0 1-102.4 102.4zM590.08-40.32H87.68V793.6a14.72 14.72 0 0 0 14.72 14.72H576a14.72 14.72 0 0 0 14.72-14.72v-833.92z m203.52 0v118.72h26.88v-118.72z m142.72 0h-28.16v206.4h-202.24v-206.4h-28.16V381.76a14.72 14.72 0 0 0 14.72 14.72h229.12a14.72 14.72 0 0 0 14.72-14.72zM707.2 296h200v-87.68H707.2zM356.8 671.04h200v-87.68h-200zM120.96 671.04h200v-87.68H120.96zM356.8 427.84h200v-87.68h-200zM120.96 427.84h200v-87.68H120.96zM356.8 184.64h200v-87.68h-200zM120.96 184.64h200v-87.68H120.96z"  horiz-adv-x="1024" />

    
    <glyph glyph-name="wodexuanzhong" unicode="&#59006;" d="M512-128C364.16-128 20.053333-109.226667 20.053333 65.28c0 140.586667 234.666667 268.373333 491.946667 268.373333s491.946667-128 491.946667-268.373333C1003.946667-109.226667 659.84-128 512-128zM512 896a243.626667 243.626667 0 1 1 243.626667-243.626667A243.84 243.84 0 0 1 512 896z m0-388.693333a64 64 0 0 0-67.626667 58.666666c0 32.426667 30.293333 16 67.626667 16s67.626667 16.426667 67.626667-16A64 64 0 0 0 512 507.306667z"  horiz-adv-x="1024" />

    
    <glyph glyph-name="tianjia" unicode="&#59007;" d="M512 896a512 512 0 1 1 512-512A512 512 0 0 1 512 896z m220.871111-542.151111H542.151111v-190.72a30.151111 30.151111 0 0 0-60.302222 0V353.848889H291.128889a30.151111 30.151111 0 1 0 0 60.302222h190.72V604.871111a30.151111 30.151111 0 0 0 60.302222 0v-190.72h190.72a30.151111 30.151111 0 1 0 0-60.302222z"  horiz-adv-x="1024" />

    
    <glyph glyph-name="xiangji" unicode="&#59008;" d="M509.45359 25.684909a209.72471 209.72471 0 1 0 209.724709 209.72471A209.936982 209.936982 0 0 0 509.45359 25.684909z m0 359.588723a149.864013 149.864013 0 1 1 149.864013-149.864013A150.076285 150.076285 0 0 1 509.45359 384.849088zM830.833357 443.860697m-29.930348 0a29.930348 29.930348 0 1 1 59.860697 0 29.930348 29.930348 0 1 1-59.860697 0ZM908.949444-128H109.957736A109.956882 109.956882 0 0 0 0.000853-18.25539V488.437811A109.956882 109.956882 0 0 0 109.957736 598.819237h199.323383l33.3267 106.135987a29.930348 29.930348 0 0 0 28.656716 21.227197h275.953565a29.930348 29.930348 0 0 0 28.656717-21.227197l33.3267-106.135987h199.323383a109.956882 109.956882 0 0 0 110.381426-110.381426v-506.693201a109.956882 109.956882 0 0 0-109.956882-109.74461zM109.957736 538.321725a50.096186 50.096186 0 0 1-50.096186-49.883914v-506.693201a50.096186 50.096186 0 0 1 49.883914-49.883913h799.20398a50.096186 50.096186 0 0 1 49.883913 49.883913V488.437811a50.096186 50.096186 0 0 1-49.883913 49.883914H687.549775a29.930348 29.930348 0 0 0-28.656716 21.227197l-33.3267 106.135987H393.34082l-33.3267-106.135987a29.930348 29.930348 0 0 0-28.656716-21.227197z"  horiz-adv-x="1024" />

    
    <glyph glyph-name="rangbu" unicode="&#59009;" d="M775.36 818.88h-64v32a43.84 43.84 0 1 1-87.68 0v-32h-222.4v32a43.84 43.84 0 1 1-87.68 0v-32h-64a160 160 0 0 1-160-160V32a160 160 0 0 1 160-160h525.76a160 160 0 0 1 160 160V657.92a160 160 0 0 1-160 160.96zM248.64 731.2h64v-32a43.84 43.84 0 1 1 87.68 0v32h221.12v-32a43.84 43.84 0 1 1 87.68 0v32h64a73.28 73.28 0 0 0 73.28-73.28v-55.04h-672V657.92a73.28 73.28 0 0 0 74.24 73.28z m526.72-771.52H248.64A73.28 73.28 0 0 0 175.68 32V515.2h672V32a73.28 73.28 0 0 0-72.32-72.32zM288 341.12H217.28v-167.04h25.6v64h43.2q60.16 0 60.16 51.2T288 341.12z m25.6-73.28a43.84 43.84 0 0 0-27.52-7.04H242.88V320h41.6a43.2 43.2 0 0 0 27.52-7.04 25.28 25.28 0 0 0 8.96-22.08 27.52 27.52 0 0 0-8.96-23.04zM417.92 341.12l-64-167.04h27.2l15.68 43.2h72l15.68-43.2H512l-64 167.04z m-13.76-103.04l27.84 75.52 27.52-75.52zM633.92 256a247.36 247.36 0 0 1-43.84 16.32 170.88 170.88 0 0 0-29.12 10.24 19.84 19.84 0 0 0-12.48 17.92 19.2 19.2 0 0 0 10.88 18.24 53.12 53.12 0 0 0 25.28 4.8 47.04 47.04 0 0 0 28.48-7.36 36.48 36.48 0 0 0 13.12-23.36h25.28a52.48 52.48 0 0 1-19.84 40.32 73.6 73.6 0 0 1-45.76 12.48 76.8 76.8 0 0 1-44.16-11.84 39.68 39.68 0 0 1-18.56-34.56 36.8 36.8 0 0 1 19.2-32 332.16 332.16 0 0 1 38.4-13.76q27.52-8.32 32-11.2a24.64 24.64 0 0 0 16-22.08 19.52 19.52 0 0 0-11.2-17.6 61.44 61.44 0 0 0-30.08-6.4 51.84 51.84 0 0 0-32 7.68 40.96 40.96 0 0 0-14.08 28.16h-25.28a58.24 58.24 0 0 1 22.72-46.4 82.56 82.56 0 0 1 47.68-12.16 82.88 82.88 0 0 1 49.28 12.8 41.92 41.92 0 0 1 17.6 35.2 40.32 40.32 0 0 1-19.52 34.56zM785.28 256a247.36 247.36 0 0 1-43.84 16.32 170.88 170.88 0 0 0-29.12 10.24 19.84 19.84 0 0 0-12.48 17.92 19.2 19.2 0 0 0 10.88 18.24 53.12 53.12 0 0 0 25.28 4.8 47.04 47.04 0 0 0 28.48-7.36 36.48 36.48 0 0 0 13.12-23.36h25.28a52.48 52.48 0 0 1-19.84 40.32 73.6 73.6 0 0 1-47.04 11.52 76.8 76.8 0 0 1-44.16-11.84 39.68 39.68 0 0 1-18.56-34.56 36.8 36.8 0 0 1 19.2-32 332.16 332.16 0 0 1 38.4-13.76q27.52-8.32 32-11.2a24.64 24.64 0 0 0 16-22.08 19.52 19.52 0 0 0-11.2-17.6 61.44 61.44 0 0 0-30.08-6.4 51.84 51.84 0 0 0-32 7.68 40.96 40.96 0 0 0-14.08 28.16h-25.28a58.24 58.24 0 0 1 22.72-46.4 82.56 82.56 0 0 1 47.68-12.16 82.88 82.88 0 0 1 49.28 12.8 41.92 41.92 0 0 1 17.6 35.2 40.32 40.32 0 0 1-18.24 35.52z"  horiz-adv-x="1024" />

    
    <glyph glyph-name="shouyeweixuanzhong" unicode="&#59010;" d="M802.136132-128h-164.266017a30.079881 30.079881 0 0 0-30.079881 30.079881v277.332235a84.053001 84.053001 0 0 1-84.053 84.053001h-23.679907a84.053001 84.053001 0 0 1-84.053-84.053001v-277.332235A30.079881 30.079881 0 0 0 386.137778-128h-164.266016a90.452975 90.452975 0 0 0-90.452976 90.452975V412.371194H30.085854a30.079881 30.079881 0 0 0-19.839921 52.693125L492.164025 888.52931a30.079881 30.079881 0 0 0 39.679843 0L1013.761961 465.064319a30.079881 30.079881 0 0 0-19.839922-52.693125h-101.332932v-449.918219A90.452975 90.452975 0 0 0 802.136132-128z m-134.186136 60.159762h134.186136a30.079881 30.079881 0 0 1 29.866548 30.293213v479.9981a30.079881 30.079881 0 0 0 30.079881 30.079881h51.626462L512.003947 825.809558 110.085538 472.530956h51.413129A30.079881 30.079881 0 0 0 192.005213 442.451075v-479.9981a30.079881 30.079881 0 0 1 30.079881-30.079881h134.186136V180.478779a144.426095 144.426095 0 0 0 144.212762 144.212762h23.679907a144.426095 144.426095 0 0 0 144.212762-144.212762z"  horiz-adv-x="1024" />

    
    <glyph glyph-name="xiaoxixuanzhong" unicode="&#59011;" d="M915.626667 182.613333a57.386667 57.386667 0 0 0-21.333334 47.36V524.8A305.92 305.92 0 0 1 603.306667 829.866667a96 96 0 0 1-182.4 0A305.92 305.92 0 0 1 129.706667 524.8v-294.826667a57.386667 57.386667 0 0 0-21.333334-47.36 99.2 99.2 0 0 1-39.04-102.613333 101.333333 101.333333 0 0 1 99.413334-77.013333h184.96a161.28 161.28 0 0 1 316.8 0h184.96a101.333333 101.333333 0 0 1 99.413333 77.013333 99.2 99.2 0 0 1-39.253333 102.613333z m-160.64 311.893334A30.08 30.08 0 0 0 725.333333 524.8a136.32 136.32 0 0 1-136.533333 136.533333 30.08 30.08 0 0 0 0 60.16 196.48 196.48 0 0 0 196.266667-196.266666 30.08 30.08 0 0 0-30.08-30.72z"  horiz-adv-x="1024" />

    
    <glyph glyph-name="wangongjilu" unicode="&#59012;" d="M775.36 818.88h-64v32a43.84 43.84 0 1 1-87.68 0v-32h-222.4v32a43.84 43.84 0 1 1-87.68 0v-32h-64a160 160 0 0 1-160-160V32a160 160 0 0 1 160-160h525.76a160 160 0 0 1 160 160V657.92a160 160 0 0 1-160 160.96zM248.64 731.2h64v-32a43.84 43.84 0 1 1 87.68 0v32h221.12v-32a43.84 43.84 0 1 1 87.68 0v32h64a73.28 73.28 0 0 0 73.28-73.28v-55.04h-672V657.92a73.28 73.28 0 0 0 74.24 73.28z m526.72-771.2H248.64A73.28 73.28 0 0 0 175.68 32V515.2h672V32a73.28 73.28 0 0 0-72.32-72.32zM744 467.2l-312.96-312.96-151.04 150.72a43.84 43.84 0 1 1-62.08-61.76l181.76-181.76a43.84 43.84 0 0 1 62.08 0l344.32 344a43.84 43.84 0 1 1-62.08 62.08z"  horiz-adv-x="1024" />

    


  </font>
</defs>
</svg>
